<?xml version="1.0" standalone="no"?>
<!DOCTYPE svg PUBLIC "-//W3C//DTD SVG 20010904//EN"
 "http://www.w3.org/TR/2001/REC-SVG-20010904/DTD/svg10.dtd">
<svg version="1.0" xmlns="http://www.w3.org/2000/svg"
 width="700.000000pt" height="700.000000pt" viewBox="0 0 700.000000 700.000000"
 preserveAspectRatio="xMidYMid meet">
<metadata>
Created by potrace 1.11, written by Peter Selinger 2001-2013
</metadata>
<g transform="translate(0.000000,700.000000) scale(0.100000,-0.100000)"
fill="#000000" stroke="none">
<path d="M747 6292 l-147 -147 0 -1938 0 -1937 295 0 295 0 2 1788 3 1787 135
0 135 0 3 -1787 2 -1788 295 0 295 0 0 1790 0 1790 135 0 135 0 0 -1790 0
-1790 300 0 300 0 0 1937 0 1938 -147 147 -148 148 -355 0 -355 0 -80 -80 -80
-80 -80 80 -80 80 -355 0 -355 0 -148 -148z"/>
<path d="M3347 6292 l-147 -147 0 -1938 0 -1937 300 0 300 0 0 895 0 895 135
0 135 0 0 -895 0 -895 300 0 300 0 0 1937 0 1938 -147 147 -148 148 -440 0
-440 0 -148 -148z m723 -1042 l0 -600 -135 0 -135 0 0 600 0 600 135 0 135 0
0 -600z"/>
<path d="M4940 4355 l0 -2085 558 0 557 0 173 173 172 172 0 1740 0 1740 -173
173 -172 172 -558 0 -557 0 0 -2085z m865 0 l0 -1490 -135 0 -135 0 -3 1480
c-1 814 0 1486 3 1493 3 9 37 12 137 10 l133 -3 0 -1490z"/>
<path d="M600 1275 l0 -715 2900 0 2900 0 0 715 0 715 -2900 0 -2900 0 0 -715z
m2636 406 c28 -5 75 -19 107 -31 l57 -21 -40 -80 c-22 -43 -41 -79 -43 -79 -1
0 -24 11 -51 25 -54 27 -95 31 -129 14 -29 -16 -37 -28 -37 -61 0 -33 27 -53
100 -75 169 -49 240 -134 227 -274 -13 -152 -124 -235 -312 -233 -93 1 -161
20 -233 64 l-33 20 42 78 c24 42 43 78 44 80 2 1 25 -11 53 -28 27 -18 68 -36
90 -41 87 -19 160 36 130 98 -13 28 -30 36 -173 88 -105 38 -164 132 -150 240
20 162 165 251 351 216z m882 -16 l52 -16 0 -121 0 -121 -22 20 c-67 61 -166
79 -244 44 -169 -77 -163 -324 8 -395 71 -30 152 -16 225 40 l33 25 0 -120 0
-120 -57 -18 c-75 -23 -201 -23 -268 0 -114 40 -211 136 -256 256 -17 47 -20
72 -17 156 3 85 8 109 33 160 51 106 162 194 282 225 50 12 165 5 231 -15z
m1809 15 c23 -5 67 -19 97 -31 l56 -20 -40 -79 -40 -79 -52 24 c-29 14 -67 25
-84 25 -43 0 -84 -34 -84 -70 0 -36 26 -55 100 -77 169 -48 239 -131 228 -267
-9 -105 -58 -175 -153 -218 -41 -18 -67 -22 -150 -22 -104 1 -166 17 -242 63
l-31 20 40 78 c23 43 42 79 43 81 1 1 25 -11 53 -28 88 -56 181 -59 217 -7 38
54 8 87 -124 137 -104 39 -151 71 -176 120 -49 96 -10 247 80 309 68 46 170
62 262 41z m-4678 -208 c41 -108 77 -201 81 -205 4 -5 41 83 83 195 l75 203
101 3 c98 3 101 2 106 -20 10 -46 125 -736 125 -752 0 -14 -14 -16 -99 -16
l-98 0 -16 103 c-9 56 -24 155 -33 220 -10 64 -21 114 -25 110 -4 -5 -47 -104
-95 -221 l-87 -213 -40 3 -40 3 -87 224 -88 225 -8 -50 c-4 -27 -19 -128 -33
-224 l-27 -175 -103 -3 -103 -3 6 28 c3 15 33 188 66 383 33 195 62 361 65
368 3 8 33 12 102 12 l98 0 74 -198z m951 -54 c0 -139 5 -269 10 -289 15 -52
50 -81 107 -86 68 -7 115 15 139 63 16 35 19 68 22 302 l4 262 100 0 100 0 -4
-287 c-4 -269 -5 -292 -26 -343 -23 -59 -75 -117 -129 -144 -56 -28 -171 -41
-258 -29 -95 14 -160 46 -202 101 -57 75 -63 114 -63 424 l0 278 100 0 100 0
0 -252z m2340 -53 l0 -305 120 0 120 0 0 -90 0 -90 -220 0 -220 0 0 395 0 395
100 0 100 0 0 -305z m838 218 l-3 -88 -117 -3 -118 -3 0 -64 0 -65 110 0 110
0 0 -85 0 -85 -110 0 -110 0 0 -65 0 -64 118 -3 117 -3 3 -87 3 -88 -226 0
-225 0 0 395 0 395 225 0 226 0 -3 -87z"/>
</g>
</svg>
