<svg xmlns="http://www.w3.org/2000/svg" xmlns:xlink="http://www.w3.org/1999/xlink"><symbol viewBox="0 0 24 24" fill="none" id="actionsAddToShopCart"><path fill="#8D8D8D" d="M9 22a2 2 0 1 0 0-4 2 2 0 0 0 0 4M20 22a2 2 0 1 0 0-4 2 2 0 0 0 0 4"/><path stroke="#8D8D8D" stroke-linecap="square" stroke-linejoin="round" stroke-width="2" d="M3 4h3.273l2.192 10.712c.075.368.28.699.58.934s.673.36 1.057.354h7.953a1.66 1.66 0 0 0 1.057-.354c.3-.235.504-.566.579-.934L21 8M14 4v6M11 7h6"/></symbol><symbol viewBox="0 0 24 24" fill="none" id="actionsSwap"><path stroke="#8D8D8D" stroke-linecap="square" stroke-width="2" d="m13.939 3 4.523 4.523-4.523 4.523M17.77 7.523H5.538M10.062 20.8l-4.524-4.523 4.524-4.523M6.265 16.277h12.197"/></symbol><symbol viewBox="0 0 24 24" fill="none" id="actionsTrack"><path stroke="#8D8D8D" stroke-linecap="round" stroke-linejoin="round" stroke-width="2" d="M21 12a9 9 0 1 1-18 0 9 9 0 0 1 18 0"/><path stroke="#8D8D8D" stroke-linecap="square" stroke-linejoin="round" stroke-width="2" d="M12 8v8M8 12h8"/></symbol><symbol viewBox="0 0 32 32" fill="none" id="activityFire"><path fill="#FF6025" d="M21.822 11.127c.02-.195.279-.265.383-.1 1.634 2.609 2.795 5.27 2.795 7.87C25 24.977 20.38 28 16 28c-4.415 0-9-3.058-9-8.702 0-4.998 3.483-7.663 3.16-11.227-.014-.16.149-.28.287-.199 1.146.682 1.966 1.998 2.11 3.546 1.602-2.311 2.331-5.666 1.63-8.987-.035-.168.138-.304.285-.215 2.59 1.578 6.19 6.046 6.476 11.037.553-.494.786-1.26.874-2.126"/></symbol><symbol viewBox="0 0 32 32" fill="none" id="activityWater"><path fill="#28A1FF" fill-rule="evenodd" d="M16.003 29C10.477 29 6 24.632 6 19.246c0-1.908.58-3.673 1.553-5.178.03-.052.044-.12.077-.172l6.443-9.69c1.064-1.608 2.794-1.608 3.864 0l6.443 9.69c.04.065.053.143.09.211.957 1.492 1.53 3.247 1.53 5.139C26 24.632 21.52 29 16.003 29" clip-rule="evenodd"/></symbol><symbol viewBox="0 0 25 24" fill="none" id="buttonArrowRight"><path stroke="#fff" stroke-width="2" d="M5.5 12h14M12.5 5l7 7-7 7"/></symbol><symbol viewBox="0 0 24 24" fill="none" id="buttonArrowLeft"><path stroke="#FF6025" stroke-width="2" d="M19 12H5M12 19l-7-7 7-7"/></symbol><symbol viewBox="0 0 24 24" fill="none" id="checkboxChecked"><path stroke="#FF6A2A" stroke-width="2" d="m9 11 3 3L22 4"/><path stroke="#FF6025" stroke-width="2" d="M17 3H3v18h18V10.579"/></symbol><symbol viewBox="0 0 24 24" fill="none" id="checkbox"><path stroke="currentColor" stroke-width="2" d="M3 3h18v18H3z"/></symbol><symbol viewBox="0 0 24 24" fill="none" id="checkboxMonoChecked"><path fill="currentColor" fill-rule="evenodd" d="M22.707 4.707 12 15.414l-3.707-3.707 1.414-1.414L12 12.586l9.293-9.293z" clip-rule="evenodd"/><path fill="currentColor" fill-rule="evenodd" d="M2 2h15v2H4v16h16v-9.421h2V22H2z" clip-rule="evenodd"/></symbol><symbol viewBox="0 0 24 24" fill="none" id="checkboxMono"><path stroke="currentColor" stroke-width="2" d="M3 3h18v18H3z"/></symbol><symbol viewBox="0 0 24 24" fill="none" id="chipsCircle"><path stroke="#8D8D8D" stroke-linecap="round" stroke-linejoin="round" stroke-width="2" d="M12 22c5.523 0 10-4.477 10-10S17.523 2 12 2 2 6.477 2 12s4.477 10 10 10"/><path stroke="#8D8D8D" stroke-linecap="square" stroke-linejoin="round" stroke-width="2" d="m15 9-6 6M9 9l6 6"/></symbol><symbol viewBox="0 0 24 24" fill="none" id="dropdownCheck"><path stroke="#B3B3B3" stroke-linecap="square" stroke-linejoin="round" stroke-width="2" d="M20 6 9 17l-5-5"/></symbol><symbol viewBox="0 0 24 24" fill="none" id="dropdownDown"><path stroke="#B3B3B3" stroke-linecap="square" stroke-width="2" d="m6 9 6 6 6-6"/></symbol><symbol viewBox="0 0 24 24" fill="none" id="dropdownUp"><path stroke="#B3B3B3" stroke-linecap="square" stroke-width="2" d="m18 15-6-6-6 6"/></symbol><symbol viewBox="0 0 16 16" fill="none" id="labelsCall"><g clip-path="url(#a)"><path fill="#FF6025" d="M11.195 5.553c.035-.195.303-.262.402-.092C12.425 6.885 13 8.332 13 9.748 13 13.256 10.433 15 8 15c-2.453 0-5-1.764-5-5.02 0-2.807 1.833-4.338 1.766-6.314-.006-.161.16-.278.29-.183.562.414.957 1.124 1.032 1.95.86-1.29 1.267-3.142.94-4.996-.03-.17.146-.301.288-.202 1.422.995 3.28 3.486 3.433 6.257.247-.229.379-.56.446-.94"/></g><defs><clipPath id="a"><path fill="#fff" d="M0 0h16v16H0z"/></clipPath></defs></symbol><symbol viewBox="0 0 16 16" fill="none" id="labelsClock"><path fill="#43A687" d="M8 15A7 7 0 1 0 8 1a7 7 0 0 0 0 14"/><path stroke="#fff" stroke-linecap="square" stroke-linejoin="round" stroke-width="2" d="M8 4v4l2 1"/></symbol><symbol viewBox="0 0 24 24" fill="none" id="navCross"><path stroke="currentColor" stroke-linecap="square" stroke-linejoin="round" stroke-width="2" d="M18 6 6 18M6 6l12 12"/></symbol><symbol viewBox="0 0 24 24" fill="none" id="navLeft"><path stroke="currentColor" stroke-linecap="square" stroke-width="2" d="m15 18-6-6 6-6"/></symbol><symbol viewBox="0 0 24 24" fill="none" id="navRight"><path stroke="currentColor" stroke-linecap="square" stroke-width="2" d="m9 18 6-6-6-6"/></symbol><symbol viewBox="0 0 24 24" fill="none" id="nav"><path stroke="currentColor" stroke-linecap="square" stroke-width="2" d="M3 12h18M3 6h18M3 18h18"/></symbol><symbol viewBox="0 0 24 24" fill="none" id="radioChecked"><circle cx="12" cy="12" r="9" stroke="#FF6025" stroke-width="2"/><circle cx="12" cy="12" r="5" fill="#FF6025"/></symbol><symbol viewBox="0 0 24 24" fill="none" id="radio"><path fill="currentColor" fill-rule="evenodd" d="M12 20a8 8 0 1 0 0-16 8 8 0 0 0 0 16m0 2c5.523 0 10-4.477 10-10S17.523 2 12 2 2 6.477 2 12s4.477 10 10 10" clip-rule="evenodd"/></symbol><symbol viewBox="0 0 32 32" fill="none" id="settingsAccount"><path stroke="#B3B3B3" stroke-linecap="square" stroke-linejoin="round" stroke-width="2" d="M24 25v-4.5m0-1.5H9.5M8 19v6"/><path stroke="#B3B3B3" stroke-linecap="round" stroke-linejoin="round" stroke-width="2" d="M16 15a4 4 0 1 0 0-8 4 4 0 0 0 0 8"/></symbol><symbol viewBox="0 0 32 32" fill="none" id="settingsClear"><path stroke="#B3B3B3" stroke-linecap="round" stroke-linejoin="round" stroke-width="2" d="m9.91 11.195.88 12.463c.042.776.634 1.342 1.409 1.342H20.3c.778 0 1.36-.566 1.41-1.342l.88-12.463"/><path stroke="#B3B3B3" stroke-linecap="square" stroke-miterlimit="10" stroke-width="2" d="M8 10.806h16"/><path stroke="#B3B3B3" stroke-linecap="square" stroke-linejoin="round" stroke-width="2" d="M13 9.842V7m1.125 0h3.75M19 7v2.842"/></symbol><symbol viewBox="0 0 32 32" fill="none" id="settingsHelp"><path stroke="#B3B3B3" stroke-miterlimit="10" stroke-width="2" d="M16 7a9 9 0 1 0 0 18 9 9 0 0 0 0-18Z"/><path stroke="#B3B3B3" stroke-linecap="square" stroke-miterlimit="10" stroke-width="2" d="M13.863 13.369s.035-.739.825-1.374c.469-.378 1.03-.487 1.537-.495.461-.006.873.07 1.12.188.421.2 1.242.691 1.242 1.733 0 1.097-.717 1.596-1.534 2.144s-1.039 1.143-1.039 1.757"/><path fill="#B3B3B3" d="M15 19h2v2h-2z"/></symbol><symbol viewBox="0 0 32 32" fill="none" id="settingsLanguage"><path stroke="#B3B3B3" stroke-linecap="round" stroke-linejoin="round" stroke-width="2" d="M16 25a9 9 0 1 0 0-18 9 9 0 0 0 0 18"/><path stroke="#B3B3B3" stroke-linecap="round" stroke-linejoin="round" stroke-width="2" d="M16 25c1.8 0 3.258-4.03 3.258-9S17.799 7 16 7c-1.8 0-3.258 4.03-3.258 9S14.2 25 16 25M7.576 13.12h16.812M7.576 18.88h16.812"/></symbol><symbol viewBox="0 0 32 32" fill="none" id="settingsLogOut"><path stroke="#B3B3B3" stroke-linecap="square" stroke-width="2" d="M13 24H9.667M8 24V9.778M8 8h5M20 20l4-4-4-4M23 16H13"/></symbol><symbol viewBox="0 0 32 32" fill="none" id="settingsNotifications"><path stroke="#B3B3B3" stroke-linecap="square" stroke-width="2" d="M21.869 15.051c0 3.809.8 4.512 1.934 5.894.467.57.058 1.431-.759 1.431H8.934c-.822 0-1.199-.859-.729-1.431 1.134-1.382 2.372-2.085 2.375-5.894 0-3.492 1.787-4.73 3.261-5.334H18.5c1.473.603 3.369 1.846 3.369 5.334Z"/><path fill="#B3B3B3" d="M13 23.187h-1zM17.627 22v1.187h2V22zm0 1.187c0 .48-.191.942-.532 1.282l1.415 1.414a3.81 3.81 0 0 0 1.116-2.696zm-.532 1.282c-.34.34-.8.531-1.282.531v2a3.81 3.81 0 0 0 2.697-1.117zM15.813 25c-.48 0-.942-.191-1.282-.531l-1.414 1.414A3.81 3.81 0 0 0 15.813 27zm-1.282-.531A1.81 1.81 0 0 1 14 23.187h-2c0 1.011.402 1.981 1.117 2.696zM14 23.187V22h-2v1.187zM14 7h4v2h-4z"/></symbol><symbol viewBox="0 0 32 32" fill="none" id="settingsPersonalDetails"><path fill="#B3B3B3" d="M19.5 8.05h-1v2h1zm3.5 2h1v-2h-1zm1-.48v-1h-2v1zM22 24.5v1h2v-1zm1 1.55h1v-2h-1zm-14-2H8v2h1zM8 25v1h2v-1zM9 9.05v-1H8v1zm4 1h1v-2h-1zm6.5 0H23v-2h-3.5zm2.5-.48V24.5h2V9.57zm1 14.48H9v2h14zM10 25V9.05H8V25zM9 10.05h4v-2H9z"/><path stroke="#B3B3B3" stroke-linecap="round" stroke-linejoin="round" stroke-width="2" d="M18.25 7h-4.5c-.414 0-.75.448-.75 1v2c0 .552.336 1 .75 1h4.5c.414 0 .75-.448.75-1V8c0-.552-.336-1-.75-1"/></symbol><symbol viewBox="0 0 32 32" fill="none" id="settingsPrivacy"><path stroke="#B3B3B3" stroke-linecap="round" stroke-linejoin="round" stroke-width="2" d="M11 13v-2a5 5 0 0 1 10 0v2"/><path stroke="#B3B3B3" stroke-linecap="square" stroke-width="2" d="M8 14h16v11H8z"/></symbol><symbol viewBox="0 0 32 32" fill="none" id="settingsRate"><path stroke="#B3B3B3" stroke-linecap="square" stroke-width="2" d="m16.5 8 2.627 5.266 5.873.85-4.25 4.096L21.753 24 16.5 21.266 11.247 24l1.003-5.788L8 14.116l5.874-.85z"/></symbol><symbol viewBox="0 0 32 32" fill="none" id="settingsStartDay"><rect width="16" height="14" x="8" y="10" stroke="#B3B3B3" stroke-width="2" rx="1"/><path fill="#B3B3B3" d="M9 11h14v2H9zM11 15h2v2h-2zM11 19h2v2h-2zM15 15h2v2h-2zM15 19h2v2h-2zM19 15h2v2h-2zM19 19h2v2h-2z"/><rect width="3" height="5" x="10.5" y="6.5" fill="#B3B3B3" stroke="#1E1E1E" rx="1.5"/><rect width="3" height="5" x="18.5" y="6.5" fill="#B3B3B3" stroke="#1E1E1E" rx="1.5"/></symbol><symbol viewBox="0 0 32 32" fill="none" id="settingsSupport"><path stroke="#B3B3B3" stroke-linecap="square" stroke-width="2" d="M11.556 20.444H24V8H8v16z"/></symbol><symbol viewBox="0 0 24 24" fill="none" id="settings"><path fill="#FF6025" d="M12 8.25A3.75 3.75 0 1 0 15.75 12 3.76 3.76 0 0 0 12 8.25M20.096 12q-.002.526-.077 1.047l2.283 1.787a.54.54 0 0 1 .123.693l-2.16 3.727a.546.546 0 0 1-.662.231l-2.684-1.078a8.3 8.3 0 0 1-1.82 1.063l-.4 2.85a.56.56 0 0 1-.54.461H9.841a.56.56 0 0 1-.54-.447l-.4-2.849a8 8 0 0 1-1.82-1.063L4.396 19.5a.545.545 0 0 1-.663-.23l-2.16-3.728a.54.54 0 0 1 .124-.692l2.283-1.787A8 8 0 0 1 3.904 12q.002-.526.077-1.047L1.698 9.166a.54.54 0 0 1-.123-.693l2.159-3.727a.546.546 0 0 1 .663-.231L7.08 5.593A8.3 8.3 0 0 1 8.9 4.53l.401-2.85a.56.56 0 0 1 .54-.461h4.318a.56.56 0 0 1 .54.446l.4 2.85c.653.271 1.265.63 1.823 1.063L19.603 4.5a.546.546 0 0 1 .663.23l2.159 3.728a.54.54 0 0 1-.123.693l-2.283 1.787q.074.529.077 1.062"/></symbol><symbol viewBox="0 0 32 32" fill="none" id="settingsTerms"><path stroke="#B3B3B3" stroke-linecap="square" stroke-width="2" d="M17 8v6h6"/><path stroke="#B3B3B3" stroke-linecap="square" stroke-width="2" d="M17.143 7 24 13v12H8V7z"/></symbol><symbol viewBox="0 0 32 32" fill="none" id="settingsUnits"><path stroke="#B3B3B3" stroke-width="2" d="M19.111 9H24v16H8V9h4.889"/><circle cx="16" cy="9" r="3" stroke="#B3B3B3" stroke-width="2"/><path fill="#B3B3B3" d="M15 20h2v4h-2z"/></symbol><symbol viewBox="0 0 24 24" fill="none" id="shareAndroid"><path fill="#fff" d="M18 16.078q1.219 0 2.063.89.843.844.843 2.016 0 1.22-.89 2.11-.844.843-2.016.843t-2.062-.843a2.96 2.96 0 0 1-.844-2.11q0-.468.047-.656l-7.078-4.125A3 3 0 0 1 6 15q-1.219 0-2.11-.89T3 12t.89-2.11T6 9a3 3 0 0 1 2.063.797l7.03-4.078A4 4 0 0 1 15 5.016q0-1.22.89-2.11t2.11-.89q1.22 0 2.11.89t.89 2.11q0 1.218-.89 2.109-.89.89-2.11.89-1.125 0-2.062-.843l-7.032 4.125Q9 11.765 9 12t-.094.703l7.125 4.125q.844-.75 1.969-.75"/></symbol><symbol viewBox="0 0 24 24" fill="none" id="shareiOS"><path fill="#fff" fill-rule="evenodd" d="m12.368.165 3.764 3.825a.687.687 0 0 1 0 .956.65.65 0 0 1-.932 0l-2.53-2.57v13.7a.67.67 0 0 1-.66.677.67.67 0 0 1-.661-.676V2.408l-2.5 2.538a.664.664 0 0 1-.932 0 .686.686 0 0 1 0-.956L11.681.165c.218-.22.471-.22.687 0m7.581 9.567v12.683c0 .875-.71 1.585-1.585 1.585H5.684C4.81 24 4.1 23.29 4.1 22.415V9.732c0-.876.71-1.585 1.585-1.585h3.387v1.358H6.288a.83.83 0 0 0-.83.83v11.476c0 .458.372.83.83.83h11.473a.83.83 0 0 0 .83-.83V10.335a.83.83 0 0 0-.83-.83h-2.793V8.147h3.396c.875 0 1.585.709 1.585 1.585" clip-rule="evenodd"/></symbol><symbol viewBox="0 0 24 24" fill="none" id="tabExplore"><path stroke="#6A6A6A" stroke-linecap="round" stroke-linejoin="round" stroke-width="2" d="M12 22c5.523 0 10-4.477 10-10S17.523 2 12 2 2 6.477 2 12s4.477 10 10 10"/><path stroke="#6A6A6A" stroke-linecap="square" stroke-linejoin="bevel" stroke-width="2" d="m16.24 7.76-2.12 6.36-6.36 2.12 2.12-6.36z"/></symbol><symbol viewBox="0 0 24 24" fill="none" id="tabMeal"><path stroke="#6A6A6A" stroke-width="2" d="M20 2.5V21"/><path fill="#6A6A6A" d="m15 14.5-.264.964-.653-1.363zm4.212 2.191-4.476-1.226.528-1.93 4.477 1.227zm-5.13-2.59 5-11.5 1.835.798-5 11.5z"/><path stroke="#6A6A6A" stroke-width="2" d="M8 3v18"/><path stroke="#6A6A6A" stroke-linejoin="bevel" stroke-width="2" d="m8 11 4.477-1.5-.5-6.5M8 11 3.523 9.5l.5-6.5"/></symbol><symbol viewBox="0 0 24 24" fill="none" id="tabProgress"><path stroke="#6A6A6A" stroke-width="2" d="M3 12h6v8H3zM9 4h6v16H9zM15 8h6v12h-6z"/></symbol><symbol viewBox="0 0 24 24" fill="none" id="tabWorkout"><circle cx="12" cy="4" r="2" fill="#6A6A6A"/><path stroke="#6A6A6A" stroke-linejoin="bevel" stroke-width="2" d="M3 9h9m0 0h10M12 9v6m0 0-9 5.5m9-5.5h5v7"/></symbol><symbol viewBox="0 0 32 32" fill="none" id="tinderHate"><path stroke="#F40" stroke-linecap="square" stroke-linejoin="round" stroke-width="4" d="M26 6 6 26M6 6l20 20"/></symbol><symbol viewBox="0 0 32 32" fill="none" id="tinderLove"><path stroke="#F40" stroke-width="4" d="M20.613 5 16 8.26 11.807 5H7.193L3 9.889v4.074L16 27l13-13.037V9.889L25.226 5z"/></symbol><symbol viewBox="0 0 32 32" fill="none" id="tinderNeutral"><path fill="#F40" d="M16 0C7.163 0 0 7.164 0 16s7.164 16 16 16 16-7.163 16-16S24.836 0 16 0m0 28.522C9.084 28.522 3.477 22.916 3.477 16S9.085 3.478 16 3.478c6.917 0 12.522 5.606 12.522 12.522S22.916 28.522 16 28.522"/><path fill="#F40" d="M11.304 14.444a2.319 2.319 0 1 0 0-4.638 2.319 2.319 0 0 0 0 4.638M20.695 14.444a2.319 2.319 0 1 0 0-4.638 2.319 2.319 0 0 0 0 4.638M10 18h12v3H10z"/></symbol><symbol viewBox="0 0 24 24" fill="none" id="variousArrowLeft"><path stroke="#4F4F4F" stroke-width="2" d="M19 12H5M12 19l-7-7 7-7"/></symbol><symbol viewBox="0 0 24 24" fill="none" id="variousArrowRight"><path stroke="#4F4F4F" stroke-width="2" d="M5 12h14M12 5l7 7-7 7"/></symbol><symbol viewBox="0 0 24 24" fill="none" id="variousCheck"><path fill="#1E1E1E" d="M2 2h20v20H2z"/><path fill="#1E1E1E" d="M12 22c5.523 0 10-4.477 10-10S17.523 2 12 2 2 6.477 2 12s4.477 10 10 10"/><path stroke="#EDEDED" stroke-linecap="square" stroke-width="2" d="m16.5 9-5.187 5.5L9 12"/></symbol><symbol viewBox="0 0 24 24" fill="none" id="variousCheckOrange"><path stroke="#FF6025" stroke-linecap="square" stroke-width="2" d="m16.5 9-5.187 5.5L9 12"/></symbol><symbol viewBox="0 0 11 9" fill="none" id="variousCheckWhite"><path stroke="#fff" stroke-linecap="square" stroke-width="2" d="M9.333 2 4.492 7 2.333 4.727"/></symbol><symbol viewBox="0 0 24 24" fill="none" id="variousCross"><path fill="#EC3E4F" d="M21 5.093 18.907 3 12 9.907 5.093 3 3 5.093 9.907 12 3 18.907 5.093 21 12 14.093 18.907 21 21 18.907 14.093 12z"/></symbol><symbol viewBox="0 0 24 24" fill="none" id="variousDelete"><path stroke="#fff" stroke-linecap="round" stroke-linejoin="round" stroke-width="2" d="m5.91 7.195.88 12.463c.042.776.634 1.342 1.409 1.342H16.3c.778 0 1.36-.566 1.41-1.342l.88-12.463"/><path stroke="#fff" stroke-linecap="square" stroke-miterlimit="10" stroke-width="2" d="M4 6.806h16"/><path stroke="#fff" stroke-linecap="square" stroke-linejoin="round" stroke-width="2" d="M9 5.842V4.066c0-.14.028-.28.085-.409.056-.129.139-.247.244-.346q.158-.15.365-.23T10.125 3h3.75q.224 0 .431.08.206.082.366.231.157.151.243.346c.057.13.085.269.085.409v1.776"/></symbol><symbol viewBox="0 0 24 24" fill="none" id="variousError"><path fill="#EC3E4F" d="M12 22c5.523 0 10-4.477 10-10S17.523 2 12 2 2 6.477 2 12s4.477 10 10 10"/><path stroke="#fff" stroke-linecap="square" stroke-linejoin="round" stroke-width="2" d="M12 8v4M12 16h.01"/></symbol><symbol viewBox="0 0 24 24" fill="none" id="variousFilled"><path stroke="#34C3B7" stroke-linecap="round" stroke-linejoin="round" stroke-width="2" d="M12 22c5.523 0 10-4.477 10-10S17.523 2 12 2 2 6.477 2 12s4.477 10 10 10"/><path stroke="#34C3B7" stroke-linecap="square" stroke-width="2" d="m16.5 9-5.187 5.5L9 12"/></symbol><symbol viewBox="0 0 24 24" fill="none" id="variousFilledOrange"><path stroke="#FF6025" stroke-linecap="round" stroke-linejoin="round" stroke-width="2" d="M12 22c5.523 0 10-4.477 10-10S17.523 2 12 2 2 6.477 2 12s4.477 10 10 10"/><path stroke="#FF6025" stroke-linecap="square" stroke-width="2" d="m16.5 9-5.187 5.5L9 12"/></symbol><symbol viewBox="0 0 24 24" fill="none" id="variousFilter"><path fill="#fff" d="M22 6H2v2h20zM19 11H5v2h14zM15 16H9v2h6z"/></symbol><symbol viewBox="0 0 16 16" fill="none" id="variousFire"><path fill="#fff" d="M10.863 5.878c.04-.192.305-.26.406-.093.728 1.217 1.231 2.453 1.231 3.663C12.5 12.488 10.19 14 8 14c-2.207 0-4.5-1.529-4.5-4.35 0-2.411 1.62-3.736 1.59-5.426-.002-.16.161-.279.29-.183.49.36.833.967.899 1.668.766-1.105 1.133-2.688.856-4.276-.03-.17.145-.302.287-.204 1.275.88 2.916 3.02 3.052 5.397.207-.185.325-.447.389-.748"/></symbol><symbol viewBox="0 0 24 24" fill="none" id="variousGift"><path fill="#FF6025" d="m9.738 15.334-.65-.877-1.372.204L9.52 12H6v7h6v-7zM19.122 8.078h-3.818q.334-.172.599-.363c.68-.486 1.04-1.102 1.038-1.714 0-.502-.238-1.22-.583-1.52A1.96 1.96 0 0 0 15.065 4c-.522 0-1.008.18-1.425.458-.626.42-1.116 1.327-1.466 2.02l-.052.102c-.127-.267-.277-.802-.447-1.046a4.1 4.1 0 0 0-1.07-1.076C10.192 4.18 9.706 4 9.184 4c-.52.001-.997.22-1.353.556-.356.334-.604 1.083-.606 1.62-.002.312.09.64.278.938.237.372.612.698 1.13.964H5.117l.009 3.21h6.599v-3.21h.804v3.21h6.602zM8.86 7.074c-.266-.167-.428-.336-.524-.487-.093-.15-.126-.412-.126-.541-.002-.217.106-.595.297-.773.187-.178.44-.288.67-.288h.005q.44.003.877.293c.436.288.847 1.07 1.132 1.643.15.29.263.596.34.894-1.322-.137-2.176-.428-2.671-.74m4.517-.698c.239-.341.52-.904.81-1.098q.436-.29.877-.293h.003c.244 0 .479.095.64.237.16.144.245.408.245.593-.003.22-.116.725-.629 1.099-.486.354-1.33.716-2.626.97a4.6 4.6 0 0 1 .68-1.508M16.275 14.65l-1.379-.193-.651.888-2.245-3.3V19h6v-7h-3.538z"/></symbol><symbol viewBox="0 0 24 24" fill="none" id="variousRetry"><path stroke="#fff" stroke-linecap="square" stroke-width="2" d="M23 4v6h-6"/><path stroke="#fff" stroke-linecap="square" stroke-width="2" d="M20.49 15a9 9 0 1 1-7.222-11.909C15.2 3.365 16.984 4.5 18.37 5.64L22.5 9.5"/></symbol><symbol viewBox="0 0 24 24" fill="none" id="variousTime"><path fill="#fff" fill-rule="evenodd" d="M11.992 3.818a8.182 8.182 0 1 0 0 16.364 8.182 8.182 0 0 0 0-16.364M1.992 12c0-5.523 4.477-10 10-10s10 4.477 10 10-4.477 10-10 10-10-4.477-10-10" clip-rule="evenodd"/><path fill="#fff" fill-rule="evenodd" d="M12.429 6v5.5H16V13h-5V6z" clip-rule="evenodd"/></symbol><symbol viewBox="0 0 24 24" fill="none" id="variousWeight"><path stroke="#fff" stroke-width="2" d="M15.111 6H20v16H4V6h4.889"/><circle cx="12" cy="6" r="3" stroke="#fff" stroke-width="2"/><path fill="#fff" d="M11 17h2v4h-2z"/></symbol><symbol viewBox="0 0 40 40" fill="none" id="warning"><path fill="#FF6025" d="M1.667 35h36.666L20 3.333zm20-5h-3.334v-3.333h3.334zm0-6.667h-3.334v-6.666h3.334z"/></symbol><symbol viewBox="0 0 24 24" fill="none" id="mealPlan"><path fill="#FF6025" d="m9.738 15.334-.65-.877-1.372.204L9.52 12H6v7h6v-7zM19.122 8.078h-3.818q.334-.172.599-.363c.68-.486 1.04-1.102 1.038-1.714 0-.502-.238-1.22-.583-1.52A1.96 1.96 0 0 0 15.065 4c-.522 0-1.008.18-1.425.458-.626.42-1.116 1.327-1.466 2.02l-.052.102c-.127-.267-.277-.802-.447-1.046a4.1 4.1 0 0 0-1.07-1.076C10.192 4.18 9.706 4 9.184 4c-.52.001-.997.22-1.353.556-.356.334-.604 1.083-.606 1.62-.002.312.09.64.278.938.237.372.612.698 1.13.964H5.117l.009 3.21h6.599v-3.21h.804v3.21h6.602zM8.86 7.074c-.266-.167-.428-.336-.524-.487-.093-.15-.126-.412-.126-.541-.002-.217.106-.595.297-.773.187-.178.44-.288.67-.288h.005q.44.003.877.293c.436.288.847 1.07 1.132 1.643.15.29.263.596.34.894-1.322-.137-2.176-.428-2.671-.74m4.517-.698c.239-.341.52-.904.81-1.098q.436-.29.877-.293h.003c.244 0 .479.095.64.237.16.144.245.408.245.593-.003.22-.116.725-.629 1.099-.486.354-1.33.716-2.626.97a4.6 4.6 0 0 1 .68-1.508M16.275 14.65l-1.379-.193-.651.888-2.245-3.3V19h6v-7h-3.538z"/></symbol><symbol viewBox="0 0 24 24" fill="none" id="variousFilledWhite"><path fill="#2a2a2a" d="M12 22c5.523 0 10-4.477 10-10S17.523 2 12 2 2 6.477 2 12s4.477 10 10 10"/><path stroke="#ededed" stroke-linecap="square" stroke-width="2" d="m16.5 9-5.187 5.5L9 12"/></symbol><symbol viewBox="0 0 22 22" fill="none" id="upsellBenefit"><path fill="#FF6025" d="M11 20.167a9.167 9.167 0 1 0 0-18.334 9.167 9.167 0 0 0 0 18.334"/><path stroke="#fff" stroke-linecap="square" stroke-width="2" d="m15.125 8.25-4.755 5.042L8.25 11"/></symbol><symbol viewBox="0 0 56 56" fill="none" id="guarantee"><path fill="#F40" d="M50.552 22.554C50.552 10.117 40.435 0 27.998 0S5.444 10.117 5.444 22.554c0 12.435 10.118 22.553 22.554 22.553 12.437 0 22.554-10.118 22.554-22.553m-26.574 9.62-7.7-7.7 2.333-2.334 5.366 5.366L37.386 14.1l2.334 2.333zM7.156 37.83.328 47.788l10.094-1.882L12.305 56l6.393-9.325A26 26 0 0 1 7.156 37.83M48.84 37.83a26 26 0 0 1-11.542 8.845L43.691 56l1.883-10.094 10.094 1.882z"/></symbol><symbol viewBox="0 0 24 24" fill="none" id="warningCircle"><path stroke="#fff" stroke-linecap="round" stroke-linejoin="round" stroke-width="2" d="M12 22c5.523 0 10-4.477 10-10S17.523 2 12 2 2 6.477 2 12s4.477 10 10 10M12 16v-4M12 8h.01"/></symbol><symbol viewBox="0 0 24 24" fill="none" id="variousCheckGreen"><path stroke="#75C6AC" stroke-linecap="square" stroke-width="3" d="M20 6 9 17l-5-5"/></symbol><symbol viewBox="0 0 24 24" fill="none" id="mailLine"><path fill="#fff" d="M3 3h18a1 1 0 0 1 1 1v16a1 1 0 0 1-1 1H3a1 1 0 0 1-1-1V4a1 1 0 0 1 1-1m17 4.238-7.928 7.1L4 7.216V19h16zM4.511 5l7.55 6.662L19.502 5z"/></symbol><symbol viewBox="0 0 24 24" fill="none" id="smartphoneLine"><path fill="#fff" d="M7 4v16h10V4zM6 2h12a1 1 0 0 1 1 1v18a1 1 0 0 1-1 1H6a1 1 0 0 1-1-1V3a1 1 0 0 1 1-1m6 15a1 1 0 1 1 0 2 1 1 0 0 1 0-2"/></symbol><symbol viewBox="0 0 24 24" fill="none" id="crossGray"><path fill="#6A6A6A" d="M21 5.093 18.907 3 12 9.907 5.093 3 3 5.093 9.907 12 3 18.907 5.093 21 12 14.093 18.907 21 21 18.907 14.093 12z"/></symbol><symbol viewBox="0 0 24 24" fill="none" id="confirm"><path fill="#121212" d="M0 0h24v24H0z"/><path fill="#FF6025" d="M11.996 21a.9.9 0 0 0 .279-.053q.165-.054.322-.134 1.797-.908 3.019-1.682 1.23-.766 1.97-1.522.742-.757 1.074-1.629.34-.872.34-2.003v-6.15q0-.855-.314-1.273-.314-.426-1.038-.73-.306-.132-.942-.364a147 147 0 0 0-1.37-.49 57 57 0 0 0-1.352-.48 63 63 0 0 0-.907-.32A4 4 0 0 0 11.996 4q-.254 0-.541.053-.288.045-.532.116-.297.098-.925.32-.619.214-1.352.481-.724.258-1.36.49a17 17 0 0 0-.943.365q-.716.302-1.029.73Q5 6.972 5 7.826v6.15q0 1.131.34 1.994.34.864 1.082 1.611.75.74 1.971 1.504 1.23.775 3 1.727.158.09.315.134a1 1 0 0 0 .288.053m-.916-4.735q-.27 0-.489-.116a1.5 1.5 0 0 1-.401-.365L8.236 13.39a1.05 1.05 0 0 1-.262-.676q0-.366.253-.632a.85.85 0 0 1 .628-.267q.219 0 .393.098.175.089.34.293l1.474 1.86 3.263-5.295q.314-.508.776-.508.348 0 .628.24t.28.615q0 .15-.062.32-.06.16-.166.32l-3.838 6.017q-.33.49-.863.49"/></symbol><symbol viewBox="0 0 24 24" fill="none" id="shareTwitter"><g clip-path="url(#a)"><path fill="#fff" d="M7.55 21.75c9.055 0 14.008-7.503 14.008-14.008 0-.211-.004-.427-.014-.638A10 10 0 0 0 24 4.555c-.898.4-1.85.66-2.826.774a4.95 4.95 0 0 0 2.165-2.723A9.9 9.9 0 0 1 20.213 3.8a4.93 4.93 0 0 0-8.394 4.49A13.99 13.99 0 0 1 1.673 3.15a4.93 4.93 0 0 0 1.523 6.57 4.9 4.9 0 0 1-2.23-.614v.06a4.92 4.92 0 0 0 3.95 4.829 4.9 4.9 0 0 1-2.221.084 4.93 4.93 0 0 0 4.597 3.422A9.88 9.88 0 0 1 0 19.538a13.97 13.97 0 0 0 7.55 2.212"/></g><defs><clipPath id="a"><path fill="#fff" d="M0 0h24v24H0z"/></clipPath></defs></symbol><symbol viewBox="0 0 24 24" fill="none" id="shareFacebook"><path fill="#fff" d="M24 12c0-6.627-5.373-12-12-12S0 5.373 0 12c0 5.99 4.388 10.954 10.125 11.854V15.47H7.078V12h3.047V9.356c0-3.007 1.792-4.668 4.533-4.668 1.312 0 2.686.234 2.686.234v2.953H15.83c-1.491 0-1.956.925-1.956 1.875V12h3.328l-.532 3.469h-2.796v8.385C19.612 22.954 24 17.99 24 12"/></symbol><symbol viewBox="0 0 24 24" fill="none" id="shareInstagram"><path fill="#fff" d="M12 2.16c3.206 0 3.586.015 4.847.071 1.172.052 1.805.249 2.226.413a3.7 3.7 0 0 1 1.379.895c.421.422.68.82.895 1.378.164.422.36 1.06.412 2.227.057 1.265.07 1.645.07 4.847 0 3.206-.013 3.586-.07 4.846-.051 1.172-.248 1.805-.412 2.227-.216.558-.478.961-.895 1.378a3.7 3.7 0 0 1-1.379.895c-.421.165-1.059.361-2.226.413-1.266.056-1.645.07-4.847.07-3.206 0-3.586-.014-4.847-.07-1.172-.052-1.805-.248-2.226-.413a3.7 3.7 0 0 1-1.379-.895 3.7 3.7 0 0 1-.895-1.378c-.164-.422-.36-1.06-.412-2.227-.057-1.265-.07-1.645-.07-4.846 0-3.207.013-3.586.07-4.847.051-1.172.248-1.805.412-2.227.216-.558.478-.96.895-1.378.422-.422.82-.68 1.379-.895.421-.164 1.059-.361 2.226-.413 1.261-.056 1.64-.07 4.847-.07M12 0C8.742 0 8.334.014 7.055.07 5.78.127 4.903.333 4.144.628a5.86 5.86 0 0 0-2.128 1.388A5.9 5.9 0 0 0 .628 4.139C.333 4.903.127 5.775.07 7.05.014 8.334 0 8.742 0 12s.014 3.666.07 4.945c.057 1.275.263 2.152.558 2.911.31.792.717 1.463 1.388 2.128a5.9 5.9 0 0 0 2.123 1.383c.764.296 1.636.502 2.911.558 1.28.056 1.688.07 4.945.07s3.666-.014 4.946-.07c1.275-.056 2.151-.262 2.91-.558a5.9 5.9 0 0 0 2.124-1.383 5.9 5.9 0 0 0 1.383-2.123c.295-.764.501-1.636.558-2.911.056-1.28.07-1.687.07-4.945s-.014-3.666-.07-4.946c-.057-1.275-.263-2.151-.558-2.91a5.6 5.6 0 0 0-1.374-2.133A5.9 5.9 0 0 0 19.861.633C19.097.338 18.225.13 16.95.075 15.666.015 15.258 0 12 0"/><path fill="#fff" d="M12 5.836A6.166 6.166 0 0 0 5.836 12 6.166 6.166 0 0 0 12 18.164 6.166 6.166 0 0 0 18.164 12 6.166 6.166 0 0 0 12 5.836m0 10.162A3.999 3.999 0 1 1 12.001 8 3.999 3.999 0 0 1 12 15.998M19.847 5.592a1.44 1.44 0 1 1-2.879 0 1.44 1.44 0 0 1 2.879 0"/></symbol><symbol viewBox="0 0 24 24" fill="none" id="shareLink"><path fill="#fff" fill-rule="evenodd" d="M11.663 4.913a1.125 1.125 0 0 0 1.59 1.59l1.874-1.875a3.001 3.001 0 1 1 4.245 4.245l-3.75 3.75a3 3 0 0 1-4.244 0 1.125 1.125 0 0 0-1.59 1.59 5.25 5.25 0 0 0 7.424 0l3.75-3.75a5.25 5.25 0 1 0-7.424-7.425zm-7.035 14.46a3 3 0 0 1 0-4.246l3.75-3.75a3 3 0 0 1 4.245 0 1.125 1.125 0 0 0 1.59-1.59 5.25 5.25 0 0 0-7.425 0l-3.75 3.75a5.25 5.25 0 0 0 7.425 7.425l1.875-1.875a1.125 1.125 0 0 0-1.59-1.59l-1.875 1.875a3 3 0 0 1-4.245 0" clip-rule="evenodd"/></symbol><symbol viewBox="0 0 16 16" fill="none" id="whiteCheck"><path fill="#F5F5F5" d="M8 16q1.64 0 3.082-.627a8.2 8.2 0 0 0 2.557-1.734 8.2 8.2 0 0 0 1.734-2.549A7.7 7.7 0 0 0 16 8q0-1.64-.627-3.082a8.2 8.2 0 0 0-1.734-2.557A8.2 8.2 0 0 0 11.082.627 7.7 7.7 0 0 0 7.992 0q-1.64 0-3.09.627a8.2 8.2 0 0 0-2.55 1.734A8.2 8.2 0 0 0 .628 4.918 7.65 7.65 0 0 0 0 8q0 1.64.627 3.09a8.2 8.2 0 0 0 1.734 2.55 8.2 8.2 0 0 0 2.549 1.733A7.7 7.7 0 0 0 8 16m-.878-4.172a.8.8 0 0 1-.37-.087 1 1 0 0 1-.32-.29l-1.97-2.416a1.3 1.3 0 0 1-.14-.243.8.8 0 0 1-.047-.267q0-.266.18-.454.18-.196.447-.196.173 0 .306.07.14.07.29.267l1.592 2.055 3.35-5.38q.219-.362.564-.362.25 0 .455.165a.51.51 0 0 1 .204.432q0 .132-.063.266a3 3 0 0 1-.133.251L7.78 11.451a.9.9 0 0 1-.29.282.73.73 0 0 1-.368.095"/></symbol><symbol viewBox="0 0 24 24" fill="none" id="bot"><path stroke="currentColor" stroke-linecap="round" stroke-linejoin="round" stroke-miterlimit="2" stroke-width="2" d="M10.878 17.4c.648-2.362 2.915-4.05 5.527-3.771 2.487.266 4.464 2.376 4.589 4.887a5.3 5.3 0 0 1-.25 1.886.885.885 0 0 1-.846.598H6.578c-2.257 0-3.95-2.079-3.507-4.306L5.793 3h5.366l1.79 3.15-3.834 2.758L8.03 7.5M9.12 8.909l2.04 7.591"/></symbol><symbol viewBox="0 0 24 24" fill="none" id="calendar"><path fill="#fff" d="M21.375 4.313h-4.687v-1.5a.19.19 0 0 0-.188-.188h-1.312a.19.19 0 0 0-.188.188v1.5H9v-1.5a.19.19 0 0 0-.187-.188H7.5a.19.19 0 0 0-.187.188v1.5H2.625v17.062h18.75V4.313m-1.687 15.375H4.313V10.78h15.375zM4.313 9.188V6h3v1.125c0 .103.084.188.187.188h1.313A.19.19 0 0 0 9 7.125V6h6v1.125c0 .103.084.188.188.188H16.5a.19.19 0 0 0 .188-.188V6h3v3.188z"/><path fill="#fff" d="M7 12h2v2H7zM7 16h2v2H7zM11 12h2v2h-2zM11 16h2v2h-2zM15 12h2v2h-2zM15 16h2v2h-2z"/></symbol><symbol viewBox="0 0 24 24" fill="none" id="blackClock"><path fill="#2A2A2A" fill-rule="evenodd" d="M12 3.818a8.182 8.182 0 1 0 0 16.364 8.182 8.182 0 0 0 0-16.364M2 12C2 6.477 6.477 2 12 2s10 4.477 10 10-4.477 10-10 10S2 17.523 2 12" clip-rule="evenodd"/><path fill="#2A2A2A" fill-rule="evenodd" d="M12.437 6v5.5h3.571V13h-5V6z" clip-rule="evenodd"/></symbol><symbol viewBox="0 0 22 22" fill="none" id="variousMark"><path stroke="#fff" stroke-linecap="round" stroke-linejoin="round" stroke-width="2" d="m15.675 3.833 2.492 2.49zm1.603-2.194L10.54 8.376c-.348.348-.585.79-.682 1.273l-.623 3.116 3.116-.624a2.5 2.5 0 0 0 1.273-.681l6.737-6.738A2.182 2.182 0 0 0 18.82 1a2.18 2.18 0 0 0-1.542.639"/><path stroke="#fff" stroke-linecap="round" stroke-linejoin="round" stroke-width="2" d="M18.647 15.118v3.529A2.353 2.353 0 0 1 16.294 21H3.353A2.353 2.353 0 0 1 1 18.647V5.706a2.353 2.353 0 0 1 2.353-2.353h3.53"/></symbol><symbol viewBox="0 0 32 32" fill="none" id="rightCircle"><circle cx="16" cy="16" r="16" fill="#393939"/><path stroke="#fff" stroke-linecap="square" stroke-width="2" d="m14 22 6-6-6-6"/></symbol><symbol viewBox="0 0 32 32" fill="none" id="leftCircle"><circle cx="16" cy="16" r="16" fill="#393939"/><path stroke="#fff" stroke-linecap="square" stroke-width="2" d="m18 22-6-6 6-6"/></symbol><symbol viewBox="0 0 16 16" fill="none" id="fillStar"><path fill="#FF6025" d="m8 11.333-3.919 2.394L5.147 9.26 1.66 6.273l4.577-.366L8 1.667l1.763 4.24 4.578.366-3.488 2.987 1.066 4.467z"/></symbol><symbol viewBox="0 0 16 16" fill="none" id="halfStar"><path fill="#FF6025" d="m8 9.77 1.878 1.147-.51-2.14 1.67-1.431-2.193-.176L8 5.139zm0 1.563-3.919 2.394L5.147 9.26 1.66 6.273l4.577-.366L8 1.667l1.763 4.24 4.578.366-3.488 2.987 1.066 4.467z"/></symbol><symbol viewBox="0 0 16 16" fill="none" id="strokeStar"><path fill="#FF6025" d="m8 11.333-3.919 2.394L5.147 9.26 1.66 6.273l4.577-.366L8 1.667l1.763 4.24 4.578.366-3.488 2.987 1.066 4.467zm0-1.562 1.878 1.146-.51-2.14 1.67-1.431-2.193-.176L8 5.139 7.155 7.17l-2.194.176 1.672 1.431-.511 2.14z"/></symbol><symbol viewBox="0 0 24 24" fill="none" id="sent"><path stroke="#fff" stroke-linecap="round" stroke-linejoin="round" stroke-width="2" d="M12 22c5.523 0 10-4.477 10-10S17.523 2 12 2 2 6.477 2 12s4.477 10 10 10"/><path stroke="#fff" stroke-linecap="square" stroke-width="2" d="m16.5 9-5.187 5.5L9 12"/></symbol><symbol viewBox="0 0 24 24" fill="none" id="cofeeTogo"><path fill="currentColor" d="M5.13 3.008A2 2 0 0 1 6.866 2h10.268a2 2 0 0 1 1.736 1.008l1.143 2c.648 1.134.049 2.503-1.09 2.887q.007.123-.002.247l-.857 12A2 2 0 0 1 16.069 22H7.93a2 2 0 0 1-1.995-1.858l-.857-12a2 2 0 0 1-.003-.247c-1.138-.384-1.737-1.753-1.09-2.887zM7.074 8l.214 3h9.424l.214-3zm.643 9 .214 3h8.138l.214-3zm10.56-11-1.143-2H6.866L5.723 6z"/></symbol><symbol viewBox="0 0 24 24" fill="none" id="equalWeight"><path stroke="currentColor" stroke-width="2" d="M15.111 6H20v16H4V6h4.889"/><circle cx="12" cy="6" r="3" stroke="currentColor" stroke-width="2"/><path fill="currentColor" d="M11 17h2v4h-2z"/></symbol><symbol viewBox="0 0 24 24" fill="none" id="filled"><path stroke="#fff" stroke-linecap="round" stroke-linejoin="round" stroke-width="2" d="M12 22c5.523 0 10-4.477 10-10S17.523 2 12 2 2 6.477 2 12s4.477 10 10 10"/><path stroke="#fff" stroke-linecap="square" stroke-width="2" d="m16.5 9-5.187 5.5L9 12"/></symbol><symbol viewBox="0 0 33 32" fill="none" id="gift"><path fill="#fff" d="M20.5 2.667a5.333 5.333 0 0 1 4.619 8.001l6.048-.001v2.666H28.5v13.334A1.333 1.333 0 0 1 27.167 28H5.833A1.333 1.333 0 0 1 4.5 26.667V13.333H1.833v-2.666l6.048.001A5.333 5.333 0 0 1 16.5 4.473a5.31 5.31 0 0 1 4-1.806m-5.333 10.666h-8v12h8zm10.666 0h-8v12h8zm-13.333-8a2.667 2.667 0 0 0-.2 5.327l.2.007h2.667V8a2.67 2.67 0 0 0-2.263-2.636l-.205-.024zm8 0A2.666 2.666 0 0 0 17.84 7.8l-.007.2v2.667H20.5A2.667 2.667 0 0 0 23.16 8.2l.007-.2A2.667 2.667 0 0 0 20.5 5.333"/></symbol><symbol viewBox="0 0 33 32" fill="none" id="primaryGift"><path fill="#FF6025" d="M20.5 2.667a5.333 5.333 0 0 1 4.619 8.001l6.048-.001v2.666H28.5v13.334A1.333 1.333 0 0 1 27.167 28H5.833A1.333 1.333 0 0 1 4.5 26.667V13.333H1.833v-2.666l6.048.001A5.333 5.333 0 0 1 16.5 4.473a5.31 5.31 0 0 1 4-1.806m-5.333 10.666h-8v12h8zm10.666 0h-8v12h8zm-13.333-8a2.667 2.667 0 0 0-.2 5.327l.2.007h2.667V8a2.67 2.67 0 0 0-2.263-2.636l-.205-.024zm8 0A2.666 2.666 0 0 0 17.84 7.8l-.007.2v2.667H20.5A2.667 2.667 0 0 0 23.16 8.2l.007-.2A2.667 2.667 0 0 0 20.5 5.333"/></symbol><symbol viewBox="0 0 22 22" fill="none" id="orangeCheck"><path fill="#FF6025" d="M11 20.167a9.167 9.167 0 1 0 0-18.334 9.167 9.167 0 0 0 0 18.334"/><path stroke="#fff" stroke-linecap="square" stroke-width="2" d="m15.125 8.25-4.755 5.042L8.25 11"/></symbol><symbol viewBox="0 0 22 23" fill="none" id="info"><path fill="#8D8D8D" d="M11 22.62c-6.075 0-11-4.924-11-11s4.925-11 11-11 11 4.925 11 11-4.925 11-11 11m0-2.2a8.8 8.8 0 1 0 0-17.6 8.8 8.8 0 0 0 0 17.6M9.9 6.12h2.2v2.2H9.9zm0 4.4h2.2v6.6H9.9z"/></symbol><symbol viewBox="0 0 30 30" fill="none" id="infoFilled"><path fill="#fff" d="M15 27.5c6.904 0 12.5-5.596 12.5-12.5S21.904 2.5 15 2.5 2.5 8.096 2.5 15 8.096 27.5 15 27.5"/><path stroke="#FF6025" stroke-linecap="square" stroke-linejoin="round" stroke-width="2" d="M15 10v5M15 20h.012"/></symbol><symbol viewBox="0 0 24 24" fill="none" id="fundsLine"><path fill="currentColor" d="m4.406 14.523 3.402-3.402 2.828 2.829 3.157-3.157L12 9h5v5l-1.793-1.793-4.571 4.571-2.828-2.828-2.475 2.474a8 8 0 1 0-.927-1.9zm-1.538 1.558-.01-.01.004-.004A10 10 0 0 1 2 12C2 6.477 6.477 2 12 2s10 4.477 10 10-4.477 10-10 10c-4.07 0-7.57-2.43-9.132-5.919"/></symbol><symbol viewBox="0 0 20 20" fill="none" id="clockTimer"><path fill="#FF6025" d="M10 19.167A9.166 9.166 0 0 1 .833 10 9.166 9.166 0 0 1 10 .833 9.166 9.166 0 0 1 19.167 10 9.166 9.166 0 0 1 10 19.167M10.917 10V5.417H9.083v6.416h5.5V10z"/></symbol><symbol viewBox="0 0 24 24" fill="none" id="clear"><path fill="#FF6025" d="M21 5.093 18.907 3 12 9.907 5.093 3 3 5.093 9.907 12 3 18.907 5.093 21 12 14.093 18.907 21 21 18.907 14.093 12z"/></symbol><symbol viewBox="0 0 8 9" fill="none" id="user"><path fill="#fff" d="M4 .62a2 2 0 1 1 0 4 2 2 0 0 1 0-4m0 5c2.21 0 4 .896 4 2v1H0v-1c0-1.104 1.79-2 4-2"/></symbol><symbol viewBox="0 0 16 17" fill="none" id="starLight"><path fill="#FF7C4B" d="m8 11.954-3.919 2.393 1.066-4.466L1.66 6.894l4.577-.367L8 2.287l1.763 4.24 4.578.367-3.488 2.987 1.066 4.466z"/></symbol><symbol viewBox="0 0 16 17" fill="none" id="halfStarLight"><path fill="#393939" d="m8 11.954-3.919 2.393 1.066-4.466L1.66 6.894l4.577-.367L8 2.287l1.763 4.24 4.578.367-3.488 2.987 1.066 4.466z"/><path fill="#FF7C4B" d="M4.081 14.347 8 11.954V2.287l-1.763 4.24-4.577.367 3.487 2.987z"/></symbol><symbol viewBox="0 0 24 24" fill="none" id="whiteCross"><path stroke="#fff" stroke-linecap="square" stroke-linejoin="round" stroke-width="2" d="M18 6 6 18M6 6l12 12"/></symbol><symbol viewBox="0 0 28 28" fill="none" id="checkmarkShieldFill"><path fill="#8D8D8D" d="M13.956 22.593c.158 0 .387-.062.615-.176 5.036-2.593 6.706-3.955 6.706-7.11v-6.53c0-1.038-.404-1.416-1.274-1.776-.967-.404-4.184-1.538-5.124-1.855a3.3 3.3 0 0 0-.923-.149 3.3 3.3 0 0 0-.914.15c-.95.298-4.166 1.458-5.124 1.854-.87.352-1.274.738-1.274 1.775v6.53c0 3.156 1.74 4.395 6.706 7.111.228.123.457.176.606.176m-.976-4.852c-.334 0-.606-.14-.852-.457l-2.153-2.61a1 1 0 0 1-.238-.633c0-.457.36-.826.809-.826.281 0 .492.105.72.387l1.688 2.135 3.621-5.792c.194-.307.44-.466.72-.466.44 0 .853.308.853.774 0 .202-.105.422-.228.624l-4.122 6.398c-.202.308-.483.466-.818.466"/></symbol><symbol viewBox="0 0 28 28" fill="none" id="questionMarkFill"><path fill="#FF6025" d="M14 27.333C6.636 27.333.667 21.364.667 14S6.637.667 14 .667 27.334 6.636 27.334 14 21.364 27.333 14 27.333M12.667 18v2.667h2.667V18zm2.667-2.193A4.67 4.67 0 0 0 14 6.667a4.67 4.67 0 0 0-4.577 3.75l2.616.524A2 2 0 1 1 14 13.333a1.334 1.334 0 0 0-1.333 1.334v2h2.667z"/></symbol><symbol viewBox="0 0 32 32" fill="none" id="checkSquare"><path fill="#43A687" d="M0 0h32v32H0z"/><path stroke="#fff" stroke-linecap="round" stroke-linejoin="round" stroke-width="2" d="M16 26c5.523 0 10-4.477 10-10S21.523 6 16 6 6 10.477 6 16s4.477 10 10 10"/><path stroke="#fff" stroke-linecap="square" stroke-width="2" d="m20.5 13-5.187 5.5L13 16"/></symbol><symbol viewBox="0 0 16 19" fill="none" id="guard"><path fill="#8D8D8D" d="M8 18.395q.14 0 .308-.053.175-.044.351-.132a44 44 0 0 0 3.226-1.758q1.31-.8 2.1-1.59.8-.8 1.152-1.714.36-.915.36-2.092v-6.39q0-.923-.343-1.389-.333-.465-1.142-.8-.255-.114-.739-.29a51 51 0 0 0-1.08-.377q-.6-.212-1.187-.414a79 79 0 0 0-1.072-.36L9.222.8a4 4 0 0 0-.616-.14A4 4 0 0 0 8 .604q-.281 0-.606.053-.317.053-.607.14-.237.08-.72.238l-1.073.36a146 146 0 0 0-1.186.414q-.589.201-1.073.386-.483.176-.738.282-.809.333-1.151.8-.343.465-.343 1.388v6.39q0 1.178.36 2.083.369.905 1.17 1.687.799.783 2.109 1.582 1.318.81 3.208 1.802.175.088.342.132.176.053.308.053m-.967-4.966q-.299 0-.536-.123a1.6 1.6 0 0 1-.448-.387l-2.057-2.461a1.4 1.4 0 0 1-.22-.36 1 1 0 0 1-.07-.37q0-.404.29-.685a.94.94 0 0 1 .686-.29q.246 0 .43.097.194.097.37.316l1.538 1.88 3.419-5.44q.351-.562.87-.562.395 0 .694.264a.84.84 0 0 1 .308.668.9.9 0 0 1-.07.342 1.7 1.7 0 0 1-.168.343l-4.087 6.24q-.175.255-.421.396a1.07 1.07 0 0 1-.528.132"/></symbol><symbol viewBox="0 0 48 48" fill="none" id="muscleCircle"><rect width="48" height="48" fill="url(#a)" rx="24"/><path fill="#fff" fill-rule="evenodd" d="M17.172 11.9a1.1 1.1 0 0 0-1.08.886L13.1 27.849c-.62 3.122 1.752 6.051 4.938 6.051h14.65c.863 0 1.692-.54 1.977-1.419a6.9 6.9 0 0 0 .328-2.465v-.003c-.164-3.296-2.749-6.065-6.03-6.415a6.72 6.72 0 0 0-5.397 1.834l-1.474-5.487 3.595-2.587A1.1 1.1 0 0 0 26 15.922l-1.968-3.465a1.1 1.1 0 0 0-.957-.557zm2.657 8.107-1.068-1.385a1.1 1.1 0 0 1 1.741-1.344l.546.707 2.55-1.836-1.163-2.049h-4.36l-2.818 14.178c-.354 1.778.998 3.422 2.78 3.422h14.566a4.7 4.7 0 0 0 .191-1.58c-.111-2.227-1.875-4.1-4.065-4.334a4.57 4.57 0 0 0-4.903 3.345 1.1 1.1 0 1 1-2.122-.582q.099-.357.233-.697z" clip-rule="evenodd"/><defs><linearGradient id="a" x1="-3" x2="48" y1="45" y2="7.2" gradientUnits="userSpaceOnUse"><stop stop-color="#F40"/><stop offset=".536" stop-color="#FF6025"/><stop offset="1" stop-color="#FF7C4B"/></linearGradient></defs></symbol><symbol viewBox="0 0 10 16" fill="none" id="back-arrow"><path stroke="#fff" stroke-linecap="square" stroke-width="2" d="M8 14 2 8l6-6"/></symbol><symbol viewBox="0 0 24 24" fill="none" id="principle-1"><path fill="#FF6025" d="M7 4v16h10V4zM6 2h12a1 1 0 0 1 1 1v18a1 1 0 0 1-1 1H6a1 1 0 0 1-1-1V3a1 1 0 0 1 1-1m6 15a1 1 0 1 1 0 2 1 1 0 0 1 0-2"/></symbol><symbol viewBox="0 0 24 24" fill="none" id="principle-2"><circle cx="12" cy="4" r="2" fill="#FF6025"/><path stroke="#FF6025" stroke-linejoin="bevel" stroke-width="2" d="M3 9h9m0 0h10M12 9v6m0 0-9 5.5m9-5.5h5v7"/></symbol><symbol viewBox="0 0 24 24" fill="none" id="principle-3"><path stroke="#FF6025" stroke-width="2" d="M3 12h6v8H3zM9 4h6v16H9zM15 8h6v12h-6z"/></symbol><symbol viewBox="0 0 24 24" fill="none" id="principle-4"><path stroke="#FF6025" stroke-linecap="round" stroke-linejoin="round" stroke-miterlimit="2" stroke-width="2" d="M10.878 17.4c.648-2.362 2.915-4.05 5.527-3.771 2.487.266 4.464 2.376 4.589 4.887a5.3 5.3 0 0 1-.25 1.886.885.885 0 0 1-.846.598H6.578c-2.257 0-3.95-2.079-3.507-4.306L5.793 3h5.366l1.79 3.15-3.834 2.758L8.03 7.5M9.12 8.909l2.04 7.591"/></symbol><symbol viewBox="0 0 28 28" fill="none" id="principle-5"><g clip-path="url(#a)"><path fill="#FF6025" d="M19.833 17.786v8.017a.583.583 0 0 1-.883.5L14 23.334l-4.95 2.97a.583.583 0 0 1-.883-.501v-8.015a9.333 9.333 0 1 1 11.666 0zM10.5 19.154v3.559l3.5-2.1 3.5 2.1v-3.559c-1.112.45-2.3.68-3.5.68a9.3 9.3 0 0 1-3.5-.68M14 17.5a7 7 0 1 0 0-14 7 7 0 0 0 0 14"/></g><defs><clipPath id="a"><path fill="#fff" d="M0 0h28v28H0z"/></clipPath></defs></symbol><symbol viewBox="0 0 28 28" fill="none" id="principle-6"><g clip-path="url(#a)"><path fill="#FF6025" d="M7.446 6.963c1.859-1.49 4.171-2.3 6.554-2.296 2.48 0 4.758.858 6.554 2.296l1.696-1.695 1.65 1.65-1.696 1.694a10.5 10.5 0 1 1-16.408 0L4.101 6.918l1.65-1.65zM14 23.333A8.167 8.167 0 1 0 14 7a8.167 8.167 0 0 0 0 16.334M15.167 14h3.5l-5.834 7.583v-5.25h-3.5l5.834-7.589zM9.333 1.167h9.334V3.5H9.333z"/></g><defs><clipPath id="a"><path fill="#fff" d="M0 0h28v28H0z"/></clipPath></defs></symbol><symbol viewBox="0 0 24 24" fill="none" id="linkedin"><path fill="#fff" d="M22.223 0H1.772C.792 0 0 .773 0 1.73v20.536C0 23.222.792 24 1.772 24h20.451c.98 0 1.777-.778 1.777-1.73V1.73C24 .773 23.203 0 22.223 0M7.12 20.452H3.558V8.995H7.12zM5.34 7.434a2.064 2.064 0 1 1 0-4.125 2.063 2.063 0 0 1 0 4.125m15.112 13.018h-3.558v-5.57c0-1.326-.024-3.037-1.852-3.037-1.851 0-2.133 1.449-2.133 2.944v5.663H9.356V8.995h3.413v1.566h.047c.473-.9 1.636-1.852 3.365-1.852 3.605 0 4.27 2.372 4.27 5.457z"/></symbol><symbol viewBox="0 0 18 18" fill="none" id="chevronWhite"><path stroke="#fff" stroke-linecap="square" stroke-width="2" d="m4.5 6.75 4.5 4.5 4.5-4.5"/></symbol><symbol viewBox="0 0 24 24" fill="none" id="botOrange"><path stroke="#FF6025" stroke-linecap="round" stroke-linejoin="round" stroke-miterlimit="2" stroke-width="2" d="M10.878 17.4c.648-2.362 2.915-4.05 5.527-3.771 2.487.266 4.464 2.376 4.589 4.887a5.3 5.3 0 0 1-.25 1.886.885.885 0 0 1-.846.598H6.578c-2.257 0-3.95-2.079-3.507-4.306L5.793 3h5.366l1.79 3.15-3.834 2.758L8.03 7.5M9.12 8.909l2.04 7.591"/></symbol><symbol viewBox="0 0 16 16" fill="none" id="bodyProfile"><circle cx="8" cy="8.001" r="6" stroke="#FF6025" stroke-width="1.333"/><path fill="#FF6025" fill-rule="evenodd" d="M10.583 13.334a2.668 2.668 0 0 0-5.166 0H4.055a4.001 4.001 0 0 1 7.89 0z" clip-rule="evenodd"/><circle cx="8" cy="6.668" r="2" stroke="#FF6025" stroke-width="1.333"/><circle cx="8" cy="8.001" r="6" stroke="#FF6025" stroke-width="1.333"/></symbol><symbol viewBox="0 0 16 16" fill="none" id="expirience"><path stroke="#FF6025" stroke-linecap="round" stroke-linejoin="round" stroke-miterlimit="2" stroke-width="1.333" d="M7.252 11.6a3.436 3.436 0 0 1 3.685-2.514c1.658.177 2.975 1.584 3.059 3.258.02.441-.039.864-.167 1.257a.59.59 0 0 1-.564.399h-8.88c-1.504 0-2.633-1.386-2.338-2.87L3.862 2H7.44l1.192 2.1-2.555 1.839L5.352 5M6.08 5.938 7.44 11"/></symbol><symbol viewBox="0 0 16 16" fill="none" id="nutrition"><path stroke="#FF6025" stroke-width="1.333" d="M13.334 1.666v12.333"/><path stroke="#FF6025" stroke-linejoin="bevel" stroke-width="1.333" d="M12.985 10.483 10 9.666l3.334-7.667"/><path stroke="#FF6025" stroke-width="1.333" d="M5.334 1.999v12"/><path stroke="#FF6025" stroke-linejoin="bevel" stroke-width="1.333" d="m5.334 7.332 2.984-1L7.985 2M5.334 7.332l-2.984-1L2.683 2"/></symbol><symbol viewBox="0 0 32 32" fill="none" id="edit"><path stroke="#fff" stroke-linecap="round" stroke-linejoin="round" stroke-width="2.188" d="m21.114 8.159 2.726 2.725zm1.753-2.4-7.371 7.37c-.381.38-.64.866-.747 1.393l-.68 3.408 3.408-.682a2.72 2.72 0 0 0 1.392-.745l7.371-7.371a2.386 2.386 0 0 0-3.373-3.374"/><path stroke="#fff" stroke-linecap="round" stroke-linejoin="round" stroke-width="2.188" d="M24.365 20.505v3.86a2.574 2.574 0 0 1-2.574 2.575H7.633a2.574 2.574 0 0 1-2.574-2.574V10.208a2.574 2.574 0 0 1 2.574-2.574h3.861"/></symbol><symbol viewBox="0 0 32 32" fill="none" id="nutrition2"><path stroke="#fff" stroke-width="2" d="M23.477 7v18.5"/><path stroke="#fff" stroke-linejoin="bevel" stroke-width="2" d="M22.953 20.227 18.477 19l5-11.5"/><path stroke="#fff" stroke-width="2" d="M11.477 7.5v18"/><path stroke="#fff" stroke-linejoin="bevel" stroke-width="2" d="m11.477 15.5 4.476-1.5-.5-6.5M11.477 15.5 7 14l.5-6.5"/></symbol><symbol viewBox="0 0 24 24" fill="none" id="close"><path stroke="currentColor" stroke-linecap="square" stroke-linejoin="round" stroke-width="2" d="M18 6 6 18M6 6l12 12"/></symbol><symbol viewBox="0 0 9 10" fill="none" id="plus"><path fill="#fff" d="M3.219 9.154V.846h2.1v8.308zM.115 6.05v-2.1h8.308v2.1z"/></symbol><symbol viewBox="0 0 30 28" fill="none" id="like"><path fill="#FF6025" d="M11.2 9.814H2.667A2.667 2.667 0 0 0 0 12.481v2.805c0 .349.068.694.2 1.016l4.128 10.019a1.33 1.33 0 0 0 1.232.827H28a1.333 1.333 0 0 0 1.333-1.334V12.481A1.333 1.333 0 0 0 28 11.148h-4.643a1.33 1.33 0 0 1-1.089-.564L14.998.282a.67.67 0 0 0-.843-.212l-2.419 1.211a3.334 3.334 0 0 0-1.74 3.804zm10.133 3.45v11.217H6.453l-3.786-9.195v-2.805H11.2a2.666 2.666 0 0 0 2.584-3.324l-1.204-4.73a.67.67 0 0 1 .348-.762l.881-.44 6.28 8.896c.334.472.76.859 1.244 1.144m2.667.55h2.667v10.667H24z"/></symbol><symbol viewBox="0 0 33 32" fill="none" id="neutral"><path fill="#FF6025" d="M16.333 0c-8.836 0-16 7.164-16 16s7.164 16 16 16 16-7.163 16-16-7.163-16-16-16m0 28.522C9.418 28.522 3.812 22.916 3.812 16S9.418 3.478 16.332 3.478c6.917 0 12.523 5.606 12.523 12.522s-5.606 12.522-12.522 12.522"/><path fill="#FF6025" d="M11.637 14.444a2.319 2.319 0 1 0 0-4.638 2.319 2.319 0 0 0 0 4.638M21.028 14.444a2.319 2.319 0 1 0 0-4.638 2.319 2.319 0 0 0 0 4.638M10.333 18h12v3h-12z"/></symbol><symbol viewBox="0 0 30 28" fill="none" id="dislike"><path fill="#FF6025" d="M11.533 17.333H3a2.667 2.667 0 0 1-2.667-2.666V11.86c0-.348.068-.693.2-1.016L4.661.827A1.33 1.33 0 0 1 5.893 0h22.44a1.333 1.333 0 0 1 1.334 1.333v13.334A1.334 1.334 0 0 1 28.333 16h-4.642a1.33 1.33 0 0 0-1.09.564l-7.27 10.301a.67.67 0 0 1-.843.212l-2.419-1.21a3.33 3.33 0 0 1-1.74-3.804zm10.134-3.45V2.667H6.787L3 11.86v2.806h8.533a2.664 2.664 0 0 1 2.61 2.121c.083.398.074.81-.026 1.203l-1.204 4.73a.67.67 0 0 0 .348.762l.882.44 6.28-8.896c.333-.472.76-.859 1.244-1.144m2.666-.55H27V2.667h-2.667z"/></symbol><symbol viewBox="0 0 24 24" fill="none" id="lock"><path fill="#6A6A6A" d="M12 1.5c-2.757 0-5 2.243-5 5v3H6a2 2 0 0 0-2 2v8a2 2 0 0 0 2 2h12a2 2 0 0 0 2-2v-8a2 2 0 0 0-2-2h-1v-3c0-2.757-2.242-5-5-5m-3 5c0-1.654 1.347-3 3-3 1.655 0 3 1.346 3 3v3H9zm4 10.723V19.5h-2v-2.277a1.993 1.993 0 0 1 .568-3.677 2 2 0 0 1 2.164 2.95 2 2 0 0 1-.731.727"/></symbol><symbol viewBox="0 0 24 24" fill="none" id="cpu-line"><g clip-path="url(#a)"><path fill="#fff" d="M6 18h12V6H6zm8 2h-4v2H8v-2H5a1 1 0 0 1-1-1v-3H2v-2h2v-4H2V8h2V5a1 1 0 0 1 1-1h3V2h2v2h4V2h2v2h3a1 1 0 0 1 1 1v3h2v2h-2v4h2v2h-2v3a1 1 0 0 1-1 1h-3v2h-2zM8 8h8v8H8z"/></g><defs><clipPath id="a"><path fill="#fff" d="M0 0h24v24H0z"/></clipPath></defs></symbol><symbol viewBox="0 0 24 24" fill="none" id="aspect-ratio-line"><g clip-path="url(#a)"><path fill="#fff" d="M21 3a1 1 0 0 1 1 1v16a1 1 0 0 1-1 1H3a1 1 0 0 1-1-1V4a1 1 0 0 1 1-1zm-1 2H4v14h16zm-7 12v-2h3v-3h2v5zM11 7v2H8v3H6V7z"/></g><defs><clipPath id="a"><path fill="#fff" d="M0 0h24v24H0z"/></clipPath></defs></symbol><symbol viewBox="0 0 24 24" fill="none" id="battery-2-charge-line"><path fill="#fff" d="M13 12h3l-5 7v-5H8l5-7zm-2-6H7v14h10V6h-4V4h-2zM9 4V3a1 1 0 0 1 1-1h4a1 1 0 0 1 1 1v1h3a1 1 0 0 1 1 1v16a1 1 0 0 1-1 1H6a1 1 0 0 1-1-1V5a1 1 0 0 1 1-1z"/></symbol><symbol viewBox="0 0 24 24" fill="none" id="refund-2-line"><g clip-path="url(#a)"><path fill="#fff" d="M5.67 4.257c3.929-3.22 9.734-2.995 13.4.672 3.906 3.905 3.906 10.237 0 14.142-3.904 3.905-10.236 3.905-14.141 0a9.99 9.99 0 0 1-2.68-9.304l.078-.313 1.934.51a8 8 0 1 0 3.053-4.45l-.221.166L8.11 6.697l-4.596 1.06 1.06-4.596zM13 6v2h2.5v2H10a.5.5 0 0 0-.09.992L10 11h4a2.5 2.5 0 1 1 0 5h-1v2h-2v-2H8.5v-2H14a.5.5 0 0 0 .09-.992L14 13h-4a2.5 2.5 0 0 1 0-5h1V6z"/></g><defs><clipPath id="a"><path fill="#fff" d="M0 0h24v24H0z"/></clipPath></defs></symbol><symbol viewBox="0 0 24 24" fill="none" id="tablet-line"><g clip-path="url(#a)"><path fill="#fff" d="M6 4v16h12V4zM5 2h14a1 1 0 0 1 1 1v18a1 1 0 0 1-1 1H5a1 1 0 0 1-1-1V3a1 1 0 0 1 1-1m7 15a1 1 0 1 1 0 2 1 1 0 0 1 0-2"/></g><defs><clipPath id="a"><path fill="#fff" d="M0 0h24v24H0z"/></clipPath></defs></symbol><symbol viewBox="0 0 24 24" fill="none" id="water-flash-line"><g clip-path="url(#a)"><path fill="#fff" d="M12 3.1 7.05 8.05a7 7 0 1 0 9.9 0zm0-2.828 6.364 6.364a9 9 0 1 1-12.728 0zM13 11h2.5L11 17.5V13H8.5L13 6.5z"/></g><defs><clipPath id="a"><path fill="#fff" d="M0 0h24v24H0z"/></clipPath></defs></symbol><symbol viewBox="0 0 24 24" fill="none" id="heart-pulse-line"><g clip-path="url(#a)"><path fill="#fff" d="M16.5 3C19.538 3 22 5.5 22 9c0 7-7.5 11-10 12.5-1.977-1.186-7.083-3.937-9.131-8.499L1 13v-2h1.21A9.5 9.5 0 0 1 2 9c0-3.5 2.5-6 5.5-6C9.36 3 11 4 12 5c1-1 2.64-2 4.5-2m0 2c-1.076 0-2.24.57-3.086 1.414L12 7.828l-1.414-1.414C9.74 5.57 8.576 5 7.5 5 5.56 5 4 6.656 4 9q0 1.028.267 2h2.167L8.5 7.556l3 5L12.434 11H17v2h-3.434L11.5 16.444l-3-5L7.566 13H5.108c.79 1.374 1.985 2.668 3.537 3.903.745.592 1.54 1.145 2.421 1.7.299.189.595.37.934.572.339-.202.635-.383.934-.571a27 27 0 0 0 2.42-1.701C18.335 14.533 20 11.943 20 9c0-2.36-1.537-4-3.5-4"/></g><defs><clipPath id="a"><path fill="#fff" d="M0 0h24v24H0z"/></clipPath></defs></symbol><symbol viewBox="0 0 24 24" fill="none" id="road-map-line"><g clip-path="url(#a)"><path fill="#fff" d="M4 6.143v12.824l5.065-2.17 6 3L20 17.68V4.857l1.303-.558a.5.5 0 0 1 .697.46V19l-7 3-6-3-6.303 2.701a.5.5 0 0 1-.697-.46V7zm12.243 5.1L12 15.485l-4.243-4.242a6 6 0 1 1 8.486 0M12 12.657l2.828-2.829a4 4 0 1 0-5.656 0z"/></g><defs><clipPath id="a"><path fill="#fff" d="M0 0h24v24H0z"/></clipPath></defs></symbol><symbol viewBox="0 0 24 24" fill="none" id="alarm-line"><g clip-path="url(#a)"><path fill="#fff" d="M12 22a9 9 0 1 1 0-18 9 9 0 0 1 0 18m0-2a7 7 0 1 0 0-14 7 7 0 0 0 0 14m1-7h3v2h-5V8h2zM1.747 6.282l3.535-3.535 1.415 1.414L3.16 7.697zm16.97-3.535 3.536 3.535-1.414 1.415-3.536-3.536 1.415-1.414"/></g><defs><clipPath id="a"><path fill="#fff" d="M0 0h24v24H0z"/></clipPath></defs></symbol><symbol viewBox="0 0 24 24" fill="none" id="message"><path fill="#fff" d="M2 8.994A5.99 5.99 0 0 1 8 3h8c3.313 0 6 2.695 6 5.994V21H8c-3.313 0-6-2.695-6-5.994zM20 19V8.994A4.004 4.004 0 0 0 16 5H8a3.99 3.99 0 0 0-4 3.994v6.012A4.004 4.004 0 0 0 8 19zm-6-8h2v2h-2zm-6 0h2v2H8z"/></symbol><symbol viewBox="0 0 32 20" fill="none" id="card"><defs><linearGradient id="a" x1="0%" x2="100%" y1="30.469%" y2="69.531%"><stop offset="0%" stop-color="#D5D9E0"/><stop offset="100%" stop-color="#ABB2BD"/></linearGradient></defs><g fill="none" fill-rule="evenodd"><rect width="32" height="20" fill="url(#a)" rx="1"/><path fill="#ABB2BD" fill-opacity=".198" d="M32 0v19a1 1 0 0 1-1 1H0z"/><rect width="5" height="5" x="4" y="4" fill="#DCDFE6" rx="1"/><rect width="5" height="2" x="23" y="14" fill="#D7DAE0" rx="1"/><rect width="5" height="2" x="16.6" y="14" fill="#D7DAE0" rx="1"/><rect width="5" height="2" x="10.3" y="14" fill="#D7DAE0" rx="1"/><rect width="5" height="2" x="4" y="14" fill="#D7DAE0" rx="1"/></g></symbol><symbol viewBox="0 0 10 16" fill="none" id="back-arrow-orange"><path stroke="#FF6025" stroke-linecap="square" stroke-width="2" d="M8 14 2 8l6-6"/></symbol><symbol viewBox="0 0 28 28" fill="none" id="timePlace"><g clip-path="url(#a)"><path fill="#FF6025" d="M19.775 18.608a8.167 8.167 0 1 0-11.55 0L14 24.383zM14 27.683l-7.425-7.425a10.5 10.5 0 1 1 14.85 0zm1.167-14.85h4.666v2.334h-7V7h2.334z"/></g><defs><clipPath id="a"><path fill="#fff" d="M0 0h28v28H0z"/></clipPath></defs></symbol><symbol viewBox="0 0 40 40" fill="none" id="wallet"><path fill="#F40" fill-opacity=".15" d="M0 0h40v40H0z"/><path fill="#FF6025" d="M27 14.167h3.5a1.167 1.167 0 0 1 1.167 1.166v14A1.167 1.167 0 0 1 30.5 30.5h-21a1.167 1.167 0 0 1-1.167-1.167V10.667A1.167 1.167 0 0 1 9.5 9.5H27zM10.667 16.5v11.667h18.666V16.5zm0-4.667v2.334h14v-2.334zM23.5 21.167H27V23.5h-3.5z"/></symbol><symbol viewBox="0 0 38 38" fill="none" id="plusOrange"><g stroke="#FF6025" stroke-width="3" clip-path="url(#a)" filter="url(#b)"><path d="M19.5 4v24M31 16.5H7"/></g><defs><clipPath id="a"><path fill="#fff" d="M7 4h24v24H7z"/></clipPath><filter id="b" width="38" height="38" x="0" y="0" color-interpolation-filters="sRGB" filterUnits="userSpaceOnUse"><feFlood flood-opacity="0" result="BackgroundImageFix"/><feColorMatrix in="SourceAlpha" result="hardAlpha" values="0 0 0 0 0 0 0 0 0 0 0 0 0 0 0 0 0 0 127 0"/><feOffset dy="3"/><feGaussianBlur stdDeviation="3.5"/><feColorMatrix values="0 0 0 0 1 0 0 0 0 0.266667 0 0 0 0 0 0 0 0 0.8 0"/><feBlend in2="BackgroundImageFix" result="effect1_dropShadow_3785_7480"/><feBlend in="SourceGraphic" in2="effect1_dropShadow_3785_7480" result="shape"/></filter></defs></symbol><symbol viewBox="0 0 18 18" fill="none" id="lock-fill"><g clip-path="url(#a)"><path fill="#fff" d="M13.958 7.583h.709a.71.71 0 0 1 .708.709v7.083a.71.71 0 0 1-.708.708H3.333a.71.71 0 0 1-.708-.708V8.292a.71.71 0 0 1 .708-.709h.709v-.708a4.958 4.958 0 0 1 9.916 0zm-1.416 0v-.708a3.542 3.542 0 0 0-7.084 0v.708zm-4.25 2.834v2.833h1.416v-2.833z"/></g><defs><clipPath id="a"><path fill="#fff" d="M.5.5h17v17H.5z"/></clipPath></defs></symbol><symbol viewBox="0 0 32 32" fill="none" id="checkSquareBlue"><path fill="#2F86E8" d="M0 0h32v32H0z"/><path stroke="#fff" d="M16 26c5.523 0 10-4.477 10-10S21.523 6 16 6 6 10.477 6 16s4.477 10 10 10Z"/><path stroke="#fff" d="m20.5 13-5.187 5.5L13 16"/></symbol><symbol viewBox="0 0 32 32" fill="none" id="readSquare"><g clip-path="url(#a)"><path fill="#FF6025" d="M0 0h32v32H0z"/><path stroke="#fff" stroke-linecap="round" stroke-linejoin="round" stroke-width="2" d="m20.675 8.833 2.492 2.49zm1.603-2.194-6.738 6.737c-.348.348-.585.79-.682 1.273l-.623 3.116 3.116-.624a2.5 2.5 0 0 0 1.273-.681l6.737-6.738A2.182 2.182 0 0 0 23.82 6a2.18 2.18 0 0 0-1.542.639"/><path stroke="#fff" stroke-linecap="round" stroke-linejoin="round" stroke-width="2" d="M23.647 20.118v3.529A2.353 2.353 0 0 1 21.294 26H8.353A2.353 2.353 0 0 1 6 23.647V10.706a2.353 2.353 0 0 1 2.353-2.353h3.53"/></g><defs><clipPath id="a"><path fill="#fff" d="M0 0h32v32H0z"/></clipPath></defs></symbol><symbol viewBox="0 0 20 20" fill="none" id="bank-card"><g clip-path="url(#a)"><path fill="#fff" d="M18.333 9.167v7.5a.833.833 0 0 1-.833.833h-15a.833.833 0 0 1-.833-.833v-7.5zm0-3.334H1.667v-2.5A.833.833 0 0 1 2.5 2.5h15a.833.833 0 0 1 .833.833z"/></g><defs><clipPath id="a"><path fill="#fff" d="M0 0h20v20H0z"/></clipPath></defs></symbol><symbol viewBox="0 0 15 15" fill="none" id="gift-bonus"><path fill="#fff" d="m4.738 11.334-.65-.877-1.372.204L4.52 8H1v7h6V8zM14.122 4.078h-3.818q.334-.172.599-.363c.68-.486 1.04-1.102 1.038-1.714 0-.502-.238-1.22-.583-1.52A1.96 1.96 0 0 0 10.065 0C9.543 0 9.057.18 8.64.458c-.625.42-1.116 1.327-1.466 2.02l-.052.102c-.127-.267-.277-.802-.446-1.046A4.1 4.1 0 0 0 5.606.458C5.19.18 4.706 0 4.183 0c-.52.001-.997.22-1.353.556-.356.334-.604 1.083-.606 1.62-.002.312.09.64.278.938.237.372.612.698 1.13.964H.117l.009 3.21h6.599v-3.21h.804v3.21h6.602zM3.86 3.074c-.266-.167-.428-.336-.524-.487-.093-.15-.126-.412-.126-.541-.002-.217.106-.595.297-.773.187-.178.44-.288.67-.288h.005q.44.003.877.293c.436.288.847 1.07 1.132 1.643.15.29.263.596.34.894-1.322-.137-2.176-.428-2.671-.74m4.517-.698c.238-.341.52-.904.81-1.098q.436-.29.877-.293h.003c.244 0 .479.095.64.237.16.144.245.408.245.593-.003.22-.116.725-.629 1.099-.486.354-1.33.716-2.627.97a4.6 4.6 0 0 1 .681-1.508M11.275 10.65l-1.379-.193-.651.888L7 8.045V15h6V8H9.462z"/></symbol><symbol viewBox="0 0 16 16" fill="none" id="log-out-upsell"><g clip-path="url(#a)"><path fill="#EDEDED" fill-rule="evenodd" d="M14 15H8.556v-1.556h3.888V2.556H8.556V1H14zM6.222 3.79 10.433 8l-4.21 4.211-1.1-1.1 2.333-2.333H0V7.222h7.456L5.122 4.89z" clip-rule="evenodd"/></g><defs><clipPath id="a"><path fill="#fff" d="M0 0h16v16H0z"/></clipPath></defs></symbol><symbol viewBox="0 0 16 16" fill="none" id="cross-square"><path fill="#F40" d="M0 0h16v16H0z"/><path stroke="#fff" stroke-linecap="square" stroke-linejoin="round" stroke-width="2" d="m12 4-8 8M4 4l8 8"/></symbol><symbol viewBox="0 0 20 20" fill="none" id="rightCircleHighlighted"><circle cx="10" cy="10" r="10" fill="#fff"/><path stroke="#F40" stroke-linecap="square" stroke-width="2" d="m9 14 4-4-4-4"/></symbol><symbol viewBox="0 0 40 40" fill="none" id="price-tag"><rect width="40" height="40" fill="#F40" rx="20"/><g clip-path="#FF4400"><path fill="#fff" d="m18.992 11.304 9.074 1.297 1.296 9.076-8.426 8.426a.916.916 0 0 1-1.296 0l-9.075-9.076a.916.916 0 0 1 0-1.296zm.648 1.946-7.131 7.13 7.779 7.777 7.13-7.13-.972-6.806zm1.943 5.833a1.834 1.834 0 1 1 2.594-2.593 1.834 1.834 0 0 1-2.594 2.593"/></g></symbol><symbol viewBox="0 0 24 24" fill="none" id="open-arm-line"><g clip-path="url(#a)"><path fill="#fff" d="M18 17v5h-2v-5c0-4.451 2.644-8.285 6.447-10.016l.828 1.82A9 9 0 0 0 18 17M8 17v5H6v-5A9 9 0 0 0 .725 8.805l.828-1.821A11 11 0 0 1 8 17m4-5a5 5 0 1 1 0-10 5 5 0 0 1 0 10m0-2a3 3 0 1 0 0-5.999A3 3 0 0 0 12 10"/></g><defs><clipPath id="a"><path fill="#fff" d="M0 0h24v24H0z"/></clipPath></defs></symbol><symbol viewBox="0 0 24 24" fill="none" id="workout-white"><circle cx="12" cy="4" r="2" fill="#fff"/><path stroke="#fff" stroke-linejoin="bevel" stroke-width="2" d="M3 9h9m0 0h10M12 9v6m0 0-9 5.5m9-5.5h5v7"/></symbol><symbol viewBox="0 0 40 40" fill="none" id="goal-weight"><g clip-path="url(#a)"><path fill="url(#b)" fill-opacity=".2" d="M0 0h40v40H0z"/><path stroke="#FF6025" stroke-width="2" d="M23.111 14H28v16H12V14h4.889"/><circle cx="20" cy="14" r="3" stroke="#FF6025" stroke-width="2"/><path fill="#FF6025" d="M19 25h2v4h-2z"/><path stroke="#FF6025" stroke-width="2" d="M8 0H0v8M32 0h8v8M32 40h8v-8M8 40H0v-8"/></g><defs><radialGradient id="b" cx="0" cy="0" r="1" gradientTransform="rotate(90 0 20)scale(25.5)" gradientUnits="userSpaceOnUse"><stop stop-color="#FF6025"/><stop offset=".653" stop-color="#FF6025" stop-opacity=".11"/><stop offset="1" stop-color="#FF6025" stop-opacity="0"/></radialGradient><clipPath id="a"><path fill="#fff" d="M0 0h40v40H0z"/></clipPath></defs></symbol><symbol viewBox="0 0 40 40" fill="none" id="goal-shared"><g clip-path="url(#a)"><path fill="url(#b)" fill-opacity=".2" d="M0 0h40v40H0z"/><path fill="#FF6025" d="M25.439 10 14 21.372h4.243L14.982 30l11.712-11.373H22.45z"/><path stroke="#FF6025" stroke-width="2" d="M8 0H0v8M32 0h8v8M32 40h8v-8M8 40H0v-8"/></g><defs><radialGradient id="b" cx="0" cy="0" r="1" gradientTransform="rotate(90 0 20)scale(25.5)" gradientUnits="userSpaceOnUse"><stop stop-color="#FF6025"/><stop offset=".653" stop-color="#FF6025" stop-opacity=".11"/><stop offset="1" stop-color="#FF6025" stop-opacity="0"/></radialGradient><clipPath id="a"><path fill="#fff" d="M0 0h40v40H0z"/></clipPath></defs></symbol><symbol viewBox="0 0 40 40" fill="none" id="goal-muscle"><g clip-path="url(#a)"><path fill="url(#b)" fill-opacity=".2" d="M0 0h40v40H0z"/><path stroke="#FF6025" stroke-linecap="round" stroke-linejoin="round" stroke-miterlimit="2" stroke-width="2" d="M18.878 25.4c.648-2.362 2.916-4.05 5.527-3.771 2.487.265 4.464 2.376 4.589 4.887a5.3 5.3 0 0 1-.25 1.886.885.885 0 0 1-.846.598h-13.32c-2.257 0-3.95-2.079-3.507-4.306L13.793 11h5.366l1.79 3.15-3.834 2.758L16.03 15.5M17.12 16.909l2.04 7.591"/><path stroke="#FF6025" stroke-width="2" d="M8 0H0v8M32 0h8v8M32 40h8v-8M8 40H0v-8"/></g><defs><radialGradient id="b" cx="0" cy="0" r="1" gradientTransform="rotate(90 0 20)scale(25.5)" gradientUnits="userSpaceOnUse"><stop stop-color="#FF6025"/><stop offset=".653" stop-color="#FF6025" stop-opacity=".11"/><stop offset="1" stop-color="#FF6025" stop-opacity="0"/></radialGradient><clipPath id="a"><path fill="#fff" d="M0 0h40v40H0z"/></clipPath></defs></symbol><symbol viewBox="0 0 40 40" fill="none" id="goal-flex"><g clip-path="url(#a)"><path fill="url(#b)" fill-opacity=".2" d="M0 0h40v40H0z"/><path stroke="#FF6025" stroke-width="2" d="M8 0H0v8M32 0h8v8M32 40h8v-8M8 40H0v-8"/><circle cx="20" cy="12" r="2" fill="#FF6025"/><path stroke="#FF6025" stroke-linejoin="bevel" stroke-width="2" d="M11 17h9m0 0h10m-10 0v6m0 0-9 5.5m9-5.5h5v7"/></g><defs><radialGradient id="b" cx="0" cy="0" r="1" gradientTransform="rotate(90 0 20)scale(25.5)" gradientUnits="userSpaceOnUse"><stop stop-color="#FF6025"/><stop offset=".653" stop-color="#FF6025" stop-opacity=".11"/><stop offset="1" stop-color="#FF6025" stop-opacity="0"/></radialGradient><clipPath id="a"><path fill="#fff" d="M0 0h40v40H0z"/></clipPath></defs></symbol><symbol viewBox="0 0 40 40" fill="none" id="goal-stess"><g clip-path="url(#a)"><path fill="url(#b)" fill-opacity=".2" d="M0 0h40v40H0z"/><path stroke="#FF6025" stroke-width="2" d="M8 0H0v8M32 0h8v8M32 40h8v-8M8 40H0v-8"/><g clip-path="url(#c)"><path fill="#FF6025" d="M26 25v5h-2v-5c0-4.451 2.644-8.285 6.447-10.016l.828 1.82A9 9 0 0 0 26 25m-10 0v5h-2v-5a9 9 0 0 0-5.275-8.195l.828-1.821A11 11 0 0 1 16 25m4-5a5 5 0 1 1 0-10 5 5 0 0 1 0 10m0-2a2.999 2.999 0 0 0 1.148-5.772 2.999 2.999 0 0 0-3.27 4.893A3 3 0 0 0 20 18"/></g></g><defs><clipPath id="a"><path fill="#fff" d="M0 0h40v40H0z"/></clipPath><clipPath id="c"><path fill="#fff" d="M8 8h24v24H8z"/></clipPath><radialGradient id="b" cx="0" cy="0" r="1" gradientTransform="rotate(90 0 20)scale(25.5)" gradientUnits="userSpaceOnUse"><stop stop-color="#FF6025"/><stop offset=".653" stop-color="#FF6025" stop-opacity=".11"/><stop offset="1" stop-color="#FF6025" stop-opacity="0"/></radialGradient></defs></symbol><symbol viewBox="0 0 27 22" fill="none" id="checkWhiteBold"><path stroke="#EDEDED" stroke-linecap="square" stroke-width="4" d="M24.125 3.208 9.427 18.792l-6.552-7.084"/></symbol><symbol viewBox="0 0 35 31" fill="none" id="heartWhite"><path stroke="#fff" stroke-width="4" d="m22.69 2.625-5.189 3.667-4.718-3.667h-5.19l-4.717 5.5v4.583l14.625 14.667 14.625-14.667V8.125l-4.246-5.5z"/></symbol><symbol viewBox="0 0 24 24" fill="none" id="finance"><g clip-path="url(#a)"><path fill="#fff" d="M15.366 3.438 18.577 9H22v2h-1.167l-.757 9.083a1 1 0 0 1-.996.917H4.92a1 1 0 0 1-.996-.917L3.166 11H2V9h3.422l3.212-5.562 1.732 1L7.732 9h8.535l-2.633-4.562zM18.826 11H5.173l.667 8h12.319zM13 13v4h-2v-4zm-4 0v4H7v-4zm8 0v4h-2v-4z"/></g><defs><clipPath id="a"><path fill="#fff" d="M0 0h24v24H0z"/></clipPath></defs></symbol><symbol viewBox="0 0 24 24" fill="none" id="moon"><path fill="#fff" d="M10 6a8 8 0 0 0 11.955 6.956C21.474 18.03 17.2 22 12 22 6.477 22 2 17.523 2 12c0-5.2 3.97-9.474 9.044-9.955A7.96 7.96 0 0 0 10 6m-6 6a8 8 0 0 0 14.957 3.955Q18.482 16 18 16C12.477 16 8 11.523 8 6q0-.481.045-.957A8 8 0 0 0 4 12m14.164-9.709L19 2.5v1l-.836.209a2 2 0 0 0-1.455 1.455L16.5 6h-1l-.209-.836a2 2 0 0 0-1.455-1.455L13 3.5v-1l.836-.209A2 2 0 0 0 15.29.836L15.5 0h1l.209.836a2 2 0 0 0 1.455 1.455m5 5L24 7.5v1l-.836.209a2 2 0 0 0-1.455 1.455L21.5 11h-1l-.209-.836a2 2 0 0 0-1.455-1.455L18 8.5v-1l.836-.209a2 2 0 0 0 1.455-1.455L20.5 5h1l.209.836a2 2 0 0 0 1.455 1.455"/></symbol><symbol viewBox="0 0 16 16" fill="none" id="clockGrey"><path fill="#8D8D8D" fill-rule="evenodd" d="M8 1.864a6.136 6.136 0 1 0 0 12.272A6.136 6.136 0 0 0 8 1.864M.5 8a7.5 7.5 0 1 1 15 0 7.5 7.5 0 0 1-15 0" clip-rule="evenodd"/><path fill="#8D8D8D" fill-rule="evenodd" d="M8.327 3.5v4.125h2.679V8.75h-3.75V3.5z" clip-rule="evenodd"/></symbol><symbol viewBox="0 0 18 20" fill="none" id="support"><path stroke="#fff" stroke-linecap="square" stroke-width="2" d="M4.556 13.444H17V1H1v16z"/></symbol><symbol viewBox="0 0 12 28" fill="none" id="mad-band"><path stroke="#fff" stroke-width="2" d="m3.133 7 .75-6h4.234l.75 6z"/><rect width="4" height="2" x="4" y="16" fill="#fff" rx="1"/><path stroke="#fff" stroke-width="2" d="m3.883 27-.75-6h5.734l-.75 6z"/><rect width="10" height="14" x="1" y="7" stroke="#fff" stroke-width="2" rx="1"/></symbol><symbol viewBox="0 0 19 19" fill="none" id="nutrition-big"><path stroke="#fff" stroke-width="2" d="M17.477 0v18.5"/><path stroke="#fff" stroke-linejoin="bevel" stroke-width="2" d="M16.953 13.227 12.477 12l5-11.5"/><path stroke="#fff" stroke-width="2" d="M5.477.5v18"/><path stroke="#fff" stroke-linejoin="bevel" stroke-width="2" d="M5.477 8.5 9.953 7l-.5-6.5M5.477 8.5 1 7 1.5.5"/></symbol></svg>